<?xml version="1.0" encoding="UTF-8" standalone="no"?>
<!-- Generator: Adobe Illustrator 18.0.0, SVG Export Plug-In . SVG Version: 6.00 Build 0)  -->

<svg
   xmlns:osb="http://www.openswatchbook.org/uri/2009/osb"
   xmlns:dc="http://purl.org/dc/elements/1.1/"
   xmlns:cc="http://creativecommons.org/ns#"
   xmlns:rdf="http://www.w3.org/1999/02/22-rdf-syntax-ns#"
   xmlns:svg="http://www.w3.org/2000/svg"
   xmlns="http://www.w3.org/2000/svg"
   xmlns:sodipodi="http://sodipodi.sourceforge.net/DTD/sodipodi-0.dtd"
   xmlns:inkscape="http://www.inkscape.org/namespaces/inkscape"
   version="1.1"
   id="Layer_1"
   x="0px"
   y="0px"
   viewBox="0 0 1281.9302 726.20293"
   enable-background="new 0 0 1474 506"
   xml:space="preserve"
   inkscape:version="0.48.2 r9819"
   width="100%"
   height="100%"
   sodipodi:docname="mine.svg"><metadata
   id="metadata3719"><rdf:RDF><cc:Work
       rdf:about=""><dc:format>image/svg+xml</dc:format><dc:type
         rdf:resource="http://purl.org/dc/dcmitype/StillImage" /><dc:title></dc:title></cc:Work></rdf:RDF></metadata><defs
   id="defs3717"><inkscape:perspective
   sodipodi:type="inkscape:persp3d"
   inkscape:vp_x="0 : 253 : 1"
   inkscape:vp_y="0 : 1000 : 0"
   inkscape:vp_z="1474 : 253 : 1"
   inkscape:persp3d-origin="737 : 168.66667 : 1"
   id="perspective4747" /><linearGradient
   id="linearGradient4741"
   osb:paint="solid"><stop
     style="stop-color:#ffffff;stop-opacity:1;"
     offset="0"
     id="stop4743" /></linearGradient>
	
	
	
	
	
	
	
	
	
	
	
	
	
	
	
	
	
	
	
	
	
	
	
	
	
	
	
	
	
	
	
	
	
	
	
	
	
	
	
	
	
	
	
	
	
	
	
	
	
	
	
	
	
	
</defs><sodipodi:namedview
   pagecolor="#ffffff"
   bordercolor="#666666"
   borderopacity="1"
   objecttolerance="10"
   gridtolerance="10"
   guidetolerance="10"
   inkscape:pageopacity="0"
   inkscape:pageshadow="2"
   inkscape:window-width="1926"
   inkscape:window-height="1024"
   id="namedview3715"
   showgrid="false"
   inkscape:snap-global="false"
   inkscape:zoom="0.33684746"
   inkscape:cx="833.18725"
   inkscape:cy="809.66968"
   inkscape:window-x="0"
   inkscape:window-y="0"
   inkscape:window-maximized="0"
   inkscape:current-layer="layer1"
   showguides="true"
   inkscape:guide-bbox="true"
   fit-margin-top="0"
   fit-margin-left="0"
   fit-margin-right="0"
   fit-margin-bottom="0" />
<rect
   style="fill:#ffffff;fill-opacity:1;fill-rule:nonzero;stroke:none"
   id="rect5012"
   width="117.31815"
   height="28.362629"
   x="589.97345"
   y="671.00586" /><g
   transform="translate(-176.6698,241.28163)"
   id="g3383"
   style="fill:#000000;fill-opacity:1">
		<path
   style="fill:#000000;fill-opacity:1"
   inkscape:connector-curvature="0"
   id="path3385"
   d="m 1453.5,478 h -201 c -2.8,0 -5.1,-2.3 -5.1,-5.1 V 162.1 c 0,-2.8 2.3,-5.1 5.1,-5.1 h 201 c 2.8,0 5.1,2.3 5.1,5.1 V 473 c -0.1,2.8 -2.3,5 -5.1,5 z m -196,-10.1 h 190.9 V 167.2 h -190.9 v 300.7 z" />
	</g><g
   transform="translate(-176.6698,241.28163)"
   id="g3387"
   style="fill:#000000;fill-opacity:1">
		<path
   style="fill:#000000;fill-opacity:1"
   inkscape:connector-curvature="0"
   id="path3389"
   d="m 1430.3,167.2 c -2.8,0 -5.1,-2.3 -5.1,-5.1 v -35.5 h -144.4 v 35.5 c 0,2.8 -2.3,5.1 -5.1,5.1 -2.8,0 -5.1,-2.3 -5.1,-5.1 v -40.5 c 0,-2.8 2.3,-5.1 5.1,-5.1 h 154.6 c 2.8,0 5.1,2.3 5.1,5.1 v 40.5 c -0.1,2.8 -2.3,5.1 -5.1,5.1 z" />
	</g><g
   transform="translate(-176.6698,241.28163)"
   id="g3391"
   style="fill:#000000;fill-opacity:1">
		<path
   style="fill:#000000;fill-opacity:1"
   inkscape:connector-curvature="0"
   id="path3393"
   d="m 1377.7,283.4 h -54.2 c -1.8,0 -3.5,-1 -4.4,-2.5 L 1292,234 c -0.9,-1.6 -0.9,-3.5 0,-5.1 l 27.1,-46.9 c 0.9,-1.6 2.6,-2.5 4.4,-2.5 h 54.2 c 1.8,0 3.5,1 4.4,2.5 l 27.1,46.9 c 0.9,1.6 0.9,3.5 0,5.1 l -27.1,46.9 c -0.9,1.5 -2.6,2.5 -4.4,2.5 z m -51.2,-10.1 h 48.3 l 24.2,-41.9 -24.2,-41.9 h -48.3 l -24.2,41.9 24.2,41.9 z" />
	</g><g
   transform="translate(-176.6698,241.28163)"
   id="g3395"
   style="fill:#000000;fill-opacity:1">
		<path
   style="fill:#000000;fill-opacity:1"
   inkscape:connector-curvature="0"
   id="path3397"
   d="m 1350.6,283.4 c -2.8,0 -5.1,-2.3 -5.1,-5.1 v -93.9 c 0,-2.8 2.3,-5.1 5.1,-5.1 2.8,0 5.1,2.3 5.1,5.1 v 93.9 c 0,2.8 -2.3,5.1 -5.1,5.1 z" />
	</g><g
   transform="translate(-176.6698,241.28163)"
   id="g3399"
   style="fill:#000000;fill-opacity:1">
		<path
   style="fill:#000000;fill-opacity:1"
   inkscape:connector-curvature="0"
   id="path3401"
   d="m 1404.8,236.5 h -108.4 c -2.8,0 -5.1,-2.3 -5.1,-5.1 0,-2.8 2.3,-5.1 5.1,-5.1 h 108.4 c 2.8,0 5.1,2.3 5.1,5.1 0,2.8 -2.3,5.1 -5.1,5.1 z" />
	</g><g
   transform="translate(-176.6698,241.28163)"
   id="g3403"
   style="fill:#000000;fill-opacity:1">
		<path
   style="fill:#000000;fill-opacity:1"
   inkscape:connector-curvature="0"
   id="path3405"
   d="m 1392.5,215.1 h -83.7 c -2.8,0 -5.1,-2.3 -5.1,-5.1 0,-2.8 2.3,-5.1 5.1,-5.1 h 83.7 c 2.8,0 5.1,2.3 5.1,5.1 -0.1,2.8 -2.3,5.1 -5.1,5.1 z" />
	</g><g
   transform="translate(-176.6698,241.28163)"
   id="g3407"
   style="fill:#000000;fill-opacity:1">
		<path
   style="fill:#000000;fill-opacity:1"
   inkscape:connector-curvature="0"
   id="path3409"
   d="m 1392.5,256.2 h -83.7 c -2.8,0 -5.1,-2.3 -5.1,-5.1 0,-2.8 2.3,-5.1 5.1,-5.1 h 83.7 c 2.8,0 5.1,2.3 5.1,5.1 0,2.8 -2.3,5.1 -5.1,5.1 z" />
	</g><g
   transform="translate(-176.6698,241.28163)"
   id="g3411"
   style="fill:#000000;fill-opacity:1">
		<path
   style="fill:#000000;fill-opacity:1"
   inkscape:connector-curvature="0"
   id="path3413"
   d="m 1430.5,418.3 h -152.6 c -2.8,0 -5.1,-2.3 -5.1,-5.1 v -71 c 0,-2.8 2.3,-5.1 5.1,-5.1 h 152.6 c 2.8,0 5.1,2.3 5.1,5.1 v 71 c -0.1,2.9 -2.3,5.1 -5.1,5.1 z m -147.6,-10.1 h 142.5 v -60.8 h -142.5 v 60.8 z" />
	</g><g
   transform="translate(-176.6698,241.28163)"
   id="g3415"
   style="fill:#000000;fill-opacity:1">
		<path
   style="fill:#000000;fill-opacity:1"
   inkscape:connector-curvature="0"
   id="path3417"
   d="m 1430.5,382.9 h -152.6 c -2.8,0 -5.1,-2.3 -5.1,-5.1 0,-2.8 2.3,-5.1 5.1,-5.1 h 152.6 c 2.8,0 5.1,2.3 5.1,5.1 -0.1,2.8 -2.3,5.1 -5.1,5.1 z" />
	</g><g
   transform="translate(-176.6698,241.28163)"
   id="g3419"
   style="fill:#000000;fill-opacity:1">
		<path
   style="fill:#000000;fill-opacity:1"
   inkscape:connector-curvature="0"
   id="path3421"
   d="m 1391,418.3 c -2.8,0 -5.1,-2.3 -5.1,-5.1 v -71 c 0,-2.8 2.3,-5.1 5.1,-5.1 2.8,0 5.1,2.3 5.1,5.1 v 71 c 0,2.9 -2.3,5.1 -5.1,5.1 z" />
	</g><g
   transform="translate(-176.6698,241.28163)"
   id="g3423"
   style="fill:#000000;fill-opacity:1">
		<path
   style="fill:#000000;fill-opacity:1"
   inkscape:connector-curvature="0"
   id="path3425"
   d="m 1317.3,418.3 c -2.8,0 -5.1,-2.3 -5.1,-5.1 v -71 c 0,-2.8 2.3,-5.1 5.1,-5.1 2.8,0 5.1,2.3 5.1,5.1 v 71 c -0.1,2.9 -2.3,5.1 -5.1,5.1 z" />
	</g><g
   transform="translate(-176.6698,241.28163)"
   id="g3427"
   style="fill:#000000;fill-opacity:1">
		<path
   style="fill:#000000;fill-opacity:1"
   inkscape:connector-curvature="0"
   id="path3429"
   d="m 1354.2,418.3 c -2.8,0 -5.1,-2.3 -5.1,-5.1 v -71 c 0,-2.8 2.3,-5.1 5.1,-5.1 2.8,0 5.1,2.3 5.1,5.1 v 71 c -0.1,2.9 -2.3,5.1 -5.1,5.1 z" />
	</g><g
   transform="translate(-176.6698,241.28163)"
   id="g3431"
   style="fill:#000000;fill-opacity:1">
		<path
   style="fill:#000000;fill-opacity:1"
   inkscape:connector-curvature="0"
   id="path3433"
   d="m 1252.5,478 h -201 c -2.8,0 -5.1,-2.3 -5.1,-5.1 V 162.1 c 0,-2.8 2.3,-5.1 5.1,-5.1 h 201 c 2.8,0 5.1,2.3 5.1,5.1 V 473 c -0.1,2.8 -2.3,5 -5.1,5 z m -196,-10.1 h 190.9 V 167.2 h -190.9 v 300.7 z" />
	</g><g
   transform="translate(-176.6698,241.28163)"
   id="g3435"
   style="fill:#000000;fill-opacity:1">
		<path
   style="fill:#000000;fill-opacity:1"
   inkscape:connector-curvature="0"
   id="path3437"
   d="m 1229.2,167.2 c -2.8,0 -5.1,-2.3 -5.1,-5.1 v -35.5 h -144.4 v 35.5 c 0,2.8 -2.3,5.1 -5.1,5.1 -2.8,0 -5.1,-2.3 -5.1,-5.1 v -40.5 c 0,-2.8 2.3,-5.1 5.1,-5.1 h 154.6 c 2.8,0 5.1,2.3 5.1,5.1 v 40.5 c 0,2.8 -2.3,5.1 -5.1,5.1 z" />
	</g><g
   transform="translate(-176.6698,241.28163)"
   id="g3439"
   style="fill:#000000;fill-opacity:1">
		<path
   style="fill:#000000;fill-opacity:1"
   inkscape:connector-curvature="0"
   id="path3441"
   d="m 1176.7,283.4 h -54.2 c -1.8,0 -3.5,-1 -4.4,-2.5 L 1091,234 c -0.9,-1.6 -0.9,-3.5 0,-5.1 l 27.1,-46.9 c 0.9,-1.6 2.6,-2.5 4.4,-2.5 h 54.2 c 1.8,0 3.5,1 4.4,2.5 l 27.1,46.9 c 0.9,1.6 0.9,3.5 0,5.1 l -27.1,46.9 c -0.9,1.5 -2.6,2.5 -4.4,2.5 z m -51.3,-10.1 h 48.3 l 24.2,-41.9 -24.2,-41.9 h -48.3 l -24.2,41.9 24.2,41.9 z" />
	</g><g
   transform="translate(-176.6698,241.28163)"
   id="g3443"
   style="fill:#000000;fill-opacity:1;stroke-linejoin:round">
		<path
   style="fill:#000000;fill-opacity:1;stroke-linejoin:round"
   inkscape:connector-curvature="0"
   id="path3445"
   d="m 1149.6,283.4 c -2.8,0 -5.1,-2.3 -5.1,-5.1 v -93.9 c 0,-2.8 2.3,-5.1 5.1,-5.1 2.8,0 5.1,2.3 5.1,5.1 v 93.9 c 0,2.8 -2.3,5.1 -5.1,5.1 z" />
	</g><g
   transform="translate(-176.6698,241.28163)"
   id="g3447"
   style="fill:#000000;fill-opacity:1">
		<path
   style="fill:#000000;fill-opacity:1"
   inkscape:connector-curvature="0"
   id="path3449"
   d="m 1203.8,236.5 h -108.4 c -2.8,0 -5.1,-2.3 -5.1,-5.1 0,-2.8 2.3,-5.1 5.1,-5.1 h 108.4 c 2.8,0 5.1,2.3 5.1,5.1 0,2.8 -2.3,5.1 -5.1,5.1 z" />
	</g><g
   transform="translate(-176.6698,241.28163)"
   id="g3451"
   style="fill:#000000;fill-opacity:1">
		<path
   style="fill:#000000;fill-opacity:1"
   inkscape:connector-curvature="0"
   id="path3453"
   d="m 1191.5,215.1 h -83.7 c -2.8,0 -5.1,-2.3 -5.1,-5.1 0,-2.8 2.3,-5.1 5.1,-5.1 h 83.7 c 2.8,0 5.1,2.3 5.1,5.1 -0.1,2.8 -2.3,5.1 -5.1,5.1 z" />
	</g><g
   transform="translate(-176.6698,241.28163)"
   id="g3455"
   style="fill:#000000;fill-opacity:1">
		<path
   style="fill:#000000;fill-opacity:1"
   inkscape:connector-curvature="0"
   id="path3457"
   d="m 1191.5,256.2 h -83.7 c -2.8,0 -5.1,-2.3 -5.1,-5.1 0,-2.8 2.3,-5.1 5.1,-5.1 h 83.7 c 2.8,0 5.1,2.3 5.1,5.1 0,2.8 -2.3,5.1 -5.1,5.1 z" />
	</g><g
   transform="translate(-176.6698,241.28163)"
   id="g3459"
   style="fill:#000000;fill-opacity:1">
		<path
   style="fill:#000000;fill-opacity:1"
   inkscape:connector-curvature="0"
   id="path3461"
   d="m 1229.4,418.3 h -152.6 c -2.8,0 -5.1,-2.3 -5.1,-5.1 v -71 c 0,-2.8 2.3,-5.1 5.1,-5.1 h 152.6 c 2.8,0 5.1,2.3 5.1,5.1 v 71 c 0,2.9 -2.3,5.1 -5.1,5.1 z m -147.5,-10.1 h 142.5 v -60.8 h -142.5 v 60.8 z" />
	</g><g
   transform="translate(-176.6698,241.28163)"
   id="g3463"
   style="fill:#000000;fill-opacity:1">
		<path
   style="fill:#000000;fill-opacity:1"
   inkscape:connector-curvature="0"
   id="path3465"
   d="m 1229.4,382.9 h -152.6 c -2.8,0 -5.1,-2.3 -5.1,-5.1 0,-2.8 2.3,-5.1 5.1,-5.1 h 152.6 c 2.8,0 5.1,2.3 5.1,5.1 0,2.8 -2.3,5.1 -5.1,5.1 z" />
	</g><g
   transform="translate(-176.6698,241.28163)"
   id="g3467"
   style="fill:#000000;fill-opacity:1">
		<path
   style="fill:#000000;fill-opacity:1"
   inkscape:connector-curvature="0"
   id="path3469"
   d="m 1190,418.3 c -2.8,0 -5.1,-2.3 -5.1,-5.1 v -71 c 0,-2.8 2.3,-5.1 5.1,-5.1 2.8,0 5.1,2.3 5.1,5.1 v 71 c 0,2.9 -2.3,5.1 -5.1,5.1 z" />
	</g><g
   transform="translate(-176.6698,241.28163)"
   id="g3471"
   style="fill:#000000;fill-opacity:1;stroke-width:5.0630002;stroke-linejoin:round;stroke-miterlimit:4;stroke-dasharray:none">
		<path
   style="fill:#000000;fill-opacity:1;stroke-width:5.0630002;stroke-linejoin:round;stroke-miterlimit:4;stroke-dasharray:none"
   inkscape:connector-curvature="0"
   id="path3473"
   d="m 1116.3,418.3 c -2.8,0 -5.1,-2.3 -5.1,-5.1 v -71 c 0,-2.8 2.3,-5.1 5.1,-5.1 2.8,0 5.1,2.3 5.1,5.1 v 71 c -0.1,2.9 -2.3,5.1 -5.1,5.1 z" />
	</g><g
   transform="translate(-176.6698,241.28163)"
   id="g3475"
   style="fill:#000000;fill-opacity:1">
		<path
   style="fill:#000000;fill-opacity:1"
   inkscape:connector-curvature="0"
   id="path3477"
   d="m 1153.1,418.3 c -2.8,0 -5.1,-2.3 -5.1,-5.1 v -71 c 0,-2.8 2.3,-5.1 5.1,-5.1 2.8,0 5.1,2.3 5.1,5.1 v 71 c 0,2.9 -2.3,5.1 -5.1,5.1 z" />
	</g><g
   transform="translate(-833.70225,813.53571)"
   id="g3487">
		<path
   style="fill:#0e1131"
   inkscape:connector-curvature="0"
   id="path3489"
   d="M 940.6,367.4 H 538.5 c -2.8,0 -5.1,-2.3 -5.1,-5.1 V 167.2 h -10.1 c -2.8,0 -5.1,-2.3 -5.1,-5.1 v -20.3 c 0,-2.8 2.3,-5.1 5.1,-5.1 2.8,0 5.1,2.3 5.1,5.1 V 157 h 10.1 c 2.8,0 5.1,2.3 5.1,5.1 V 357.2 H 935.5 V 162.1 c 0,-2.8 2.3,-5.1 5.1,-5.1 h 10.1 v -15.2 c 0,-2.8 2.3,-5.1 5.1,-5.1 2.8,0 5.1,2.3 5.1,5.1 v 20.3 c 0,2.8 -2.3,5.1 -5.1,5.1 h -10.1 v 195.1 c -0.1,2.8 -2.3,5.1 -5.1,5.1 z" />
	</g><g
   transform="translate(-833.70225,813.53571)"
   id="g3491">
		<path
   style="fill:#0e1131"
   inkscape:connector-curvature="0"
   id="path3493"
   d="m 878.1,167.2 c -2.8,0 -5.1,-2.3 -5.1,-5.1 v -20.3 c 0,-2.8 2.3,-5.1 5.1,-5.1 2.8,0 5.1,2.3 5.1,5.1 v 20.3 c -0.1,2.8 -2.3,5.1 -5.1,5.1 z" />
	</g><g
   transform="translate(-833.70225,813.53571)"
   id="g3495">
		<path
   style="fill:#0e1131"
   inkscape:connector-curvature="0"
   id="path3497"
   d="m 893.3,167.2 h -15.2 c -2.8,0 -5.1,-2.3 -5.1,-5.1 0,-2.8 2.3,-5.1 5.1,-5.1 h 15.2 c 2.8,0 5.1,2.3 5.1,5.1 -0.1,2.8 -2.3,5.1 -5.1,5.1 z" />
	</g><g
   transform="translate(-833.70225,813.53571)"
   id="g3499">
		<path
   style="fill:#0e1131"
   inkscape:connector-curvature="0"
   id="path3501"
   d="m 893.3,367.4 c -2.8,0 -5.1,-2.3 -5.1,-5.1 V 162.1 c 0,-2.8 2.3,-5.1 5.1,-5.1 2.8,0 5.1,2.3 5.1,5.1 v 200.2 c -0.1,2.8 -2.3,5.1 -5.1,5.1 z" />
	</g><g
   transform="translate(-833.70225,813.53571)"
   id="g3503">
		<path
   style="fill:#0e1131"
   inkscape:connector-curvature="0"
   id="path3505"
   d="m 602.7,167.2 c -2.8,0 -5.1,-2.3 -5.1,-5.1 v -20.3 c 0,-2.8 2.3,-5.1 5.1,-5.1 2.8,0 5.1,2.3 5.1,5.1 v 20.3 c 0,2.8 -2.3,5.1 -5.1,5.1 z" />
	</g><g
   transform="translate(-833.70225,813.53571)"
   id="g3507">
		<path
   style="fill:#0e1131"
   inkscape:connector-curvature="0"
   id="path3509"
   d="m 602.7,167.2 h -15.2 c -2.8,0 -5.1,-2.3 -5.1,-5.1 0,-2.8 2.3,-5.1 5.1,-5.1 h 15.2 c 2.8,0 5.1,2.3 5.1,5.1 0,2.8 -2.3,5.1 -5.1,5.1 z" />
	</g><g
   transform="translate(-833.70225,813.53571)"
   id="g3511">
		<path
   style="fill:#0e1131"
   inkscape:connector-curvature="0"
   id="path3513"
   d="m 587.5,367.4 c -2.8,0 -5.1,-2.3 -5.1,-5.1 V 162.1 c 0,-2.8 2.3,-5.1 5.1,-5.1 2.8,0 5.1,2.3 5.1,5.1 v 200.2 c 0,2.8 -2.3,5.1 -5.1,5.1 z" />
	</g><g
   transform="translate(-833.70225,813.53571)"
   id="g3515">
		<path
   style="fill:#0e1131"
   inkscape:connector-curvature="0"
   id="path3517"
   d="M 955.8,398.6 H 523.3 c -2.8,0 -5.1,-2.3 -5.1,-5.1 v -31.3 c 0,-2.8 2.3,-5.1 5.1,-5.1 h 432.5 c 2.8,0 5.1,2.3 5.1,5.1 v 31.3 c -0.1,2.9 -2.3,5.1 -5.1,5.1 z M 528.4,388.5 H 950.7 V 367.4 H 528.4 v 21.1 z" />
	</g><g
   transform="translate(-833.70225,813.53571)"
   id="g3519">
		<path
   style="fill:#0e1131"
   inkscape:connector-curvature="0"
   id="path3521"
   d="M 972.7,429.9 H 506.4 c -2.8,0 -5.1,-2.3 -5.1,-5.1 v -31.3 c 0,-2.8 2.3,-5.1 5.1,-5.1 h 466.2 c 2.8,0 5.1,2.3 5.1,5.1 v 31.3 c 0,2.8 -2.2,5.1 -5,5.1 z M 511.5,419.7 H 967.6 V 398.6 H 511.5 v 21.1 z" />
	</g><g
   transform="translate(1555.5861,503.33142)"
   id="g3527">
		<path
   style="fill:#0e1131"
   inkscape:connector-curvature="0"
   id="path3529"
   d="M 1006.4,492.4 H 464.2 c -2.8,0 -5.1,-2.3 -5.1,-5.1 V 456 c 0,-2.8 2.3,-5.1 5.1,-5.1 h 542.3 c 2.8,0 5.1,2.3 5.1,5.1 v 31.3 c -0.1,2.8 -2.4,5.1 -5.2,5.1 z M 469.3,482.2 h 532.1 V 461.1 H 469.3 v 21.1 z" />
	</g><g
   transform="translate(-833.70225,813.53571)"
   id="g3531">
		<path
   style="fill:#0e1131"
   inkscape:connector-curvature="0"
   id="path3533"
   d="m 972.7,429.9 c -2.8,0 -5.1,-2.3 -5.1,-5.1 v -31.3 c 0,-2.8 2.3,-5.1 5.1,-5.1 2.8,0 5.1,2.3 5.1,5.1 v 31.3 c -0.1,2.8 -2.3,5.1 -5.1,5.1 z" />
	</g><g
   transform="translate(-176.6698,241.28163)"
   id="g3535"
   style="fill:#000000;fill-opacity:1;stroke-width:5.0630002;stroke-linejoin:round;stroke-miterlimit:4;stroke-dasharray:none">
		<path
   style="fill:#000000;fill-opacity:1;stroke-width:5.0630002;stroke-linejoin:round;stroke-miterlimit:4;stroke-dasharray:none"
   inkscape:connector-curvature="0"
   id="path3537"
   d="m 1051.4,478 h -45 c -2.8,0 -5.1,-2.3 -5.1,-5.1 v -331 c 0,-2.8 2.3,-5.1 5.1,-5.1 h 68.2 c 2.8,0 5.1,2.3 5.1,5.1 v 20.3 c 0,2.8 -2.3,5.1 -5.1,5.1 -2.8,0 -5.1,-2.3 -5.1,-5.1 V 147 h -58.1 v 321 h 39.9 c 2.8,0 5.1,2.3 5.1,5.1 0.1,2.7 -2.2,4.9 -5,4.9 z" />
	</g><g
   transform="translate(-12.1,245.02186)"
   id="g3539"
   style="fill:#000000;fill-opacity:1">
		<g
   id="g3541"
   style="fill:#000000;fill-opacity:1">
			<path
   style="fill:#000000;fill-opacity:1"
   inkscape:connector-curvature="0"
   id="path3543"
   d="m 218.2,478 h -201 c -2.8,0 -5.1,-2.3 -5.1,-5.1 V 162.1 c 0,-2.8 2.3,-5.1 5.1,-5.1 h 201 c 2.8,0 5.1,2.3 5.1,5.1 V 473 c 0,2.8 -2.3,5 -5.1,5 z M 22.2,467.9 H 213.1 V 167.2 H 22.2 v 300.7 z" />
		</g>
		<g
   id="g3545"
   style="fill:#000000;fill-opacity:1">
			<path
   style="fill:#000000;fill-opacity:1"
   inkscape:connector-curvature="0"
   id="path3547"
   d="m 195,167.2 c -2.8,0 -5.1,-2.3 -5.1,-5.1 V 126.6 H 45.5 v 35.5 c 0,2.8 -2.3,5.1 -5.1,5.1 -2.8,0 -5.1,-2.3 -5.1,-5.1 v -40.5 c 0,-2.8 2.3,-5.1 5.1,-5.1 H 195 c 2.8,0 5.1,2.3 5.1,5.1 v 40.5 c -0.1,2.8 -2.3,5.1 -5.1,5.1 z" />
		</g>
		<g
   id="g3549"
   style="fill:#000000;fill-opacity:1">
			<path
   style="fill:#000000;fill-opacity:1"
   inkscape:connector-curvature="0"
   id="path3551"
   d="M 147.1,283.4 H 92.9 c -1.8,0 -3.5,-1 -4.4,-2.5 L 61.4,234 c -0.9,-1.6 -0.9,-3.5 0,-5.1 L 88.5,182 c 0.9,-1.6 2.6,-2.5 4.4,-2.5 h 54.2 c 1.8,0 3.5,1 4.4,2.5 l 27.1,46.9 c 0.9,1.6 0.9,3.5 0,5.1 l -27.1,46.9 c -0.9,1.5 -2.6,2.5 -4.4,2.5 z M 95.8,273.3 h 48.3 l 24.2,-41.9 -24.2,-41.9 H 95.8 l -24.2,41.9 24.2,41.9 z" />
		</g>
		<g
   id="g3553"
   style="fill:#000000;fill-opacity:1">
			<path
   style="fill:#000000;fill-opacity:1"
   inkscape:connector-curvature="0"
   id="path3555"
   d="m 120,283.4 c -2.8,0 -5.1,-2.3 -5.1,-5.1 v -93.9 c 0,-2.8 2.3,-5.1 5.1,-5.1 2.8,0 5.1,2.3 5.1,5.1 v 93.9 c 0,2.8 -2.3,5.1 -5.1,5.1 z" />
		</g>
		<g
   id="g3557"
   style="fill:#000000;fill-opacity:1">
			<path
   style="fill:#000000;fill-opacity:1"
   inkscape:connector-curvature="0"
   id="path3559"
   d="M 174.2,236.5 H 65.8 c -2.8,0 -5.1,-2.3 -5.1,-5.1 0,-2.8 2.3,-5.1 5.1,-5.1 h 108.4 c 2.8,0 5.1,2.3 5.1,5.1 0,2.8 -2.3,5.1 -5.1,5.1 z" />
		</g>
		<g
   id="g3561"
   style="fill:#000000;fill-opacity:1">
			<path
   style="fill:#000000;fill-opacity:1"
   inkscape:connector-curvature="0"
   id="path3563"
   d="M 161.9,215.1 H 78.2 c -2.8,0 -5.1,-2.3 -5.1,-5.1 0,-2.8 2.3,-5.1 5.1,-5.1 h 83.7 c 2.8,0 5.1,2.3 5.1,5.1 -0.1,2.8 -2.3,5.1 -5.1,5.1 z" />
		</g>
		<g
   id="g3565"
   style="fill:#000000;fill-opacity:1">
			<path
   style="fill:#000000;fill-opacity:1"
   inkscape:connector-curvature="0"
   id="path3567"
   d="M 161.9,256.2 H 78.2 c -2.8,0 -5.1,-2.3 -5.1,-5.1 0,-2.8 2.3,-5.1 5.1,-5.1 h 83.7 c 2.8,0 5.1,2.3 5.1,5.1 0,2.8 -2.3,5.1 -5.1,5.1 z" />
		</g>
		<g
   id="g3569"
   style="fill:#000000;fill-opacity:1">
			<path
   style="fill:#000000;fill-opacity:1"
   inkscape:connector-curvature="0"
   id="path3571"
   d="M 192.8,418.3 H 40.2 c -2.8,0 -5.1,-2.3 -5.1,-5.1 v -71 c 0,-2.8 2.3,-5.1 5.1,-5.1 h 152.6 c 2.8,0 5.1,2.3 5.1,5.1 v 71 c -0.1,2.9 -2.3,5.1 -5.1,5.1 z M 45.2,408.2 H 187.7 V 347.4 H 45.2 v 60.8 z" />
		</g>
		<g
   id="g3573"
   style="fill:#000000;fill-opacity:1">
			<path
   style="fill:#000000;fill-opacity:1"
   inkscape:connector-curvature="0"
   id="path3575"
   d="M 192.8,382.9 H 40.2 c -2.8,0 -5.1,-2.3 -5.1,-5.1 0,-2.8 2.3,-5.1 5.1,-5.1 h 152.6 c 2.8,0 5.1,2.3 5.1,5.1 -0.1,2.8 -2.3,5.1 -5.1,5.1 z" />
		</g>
		<g
   id="g3577"
   style="fill:#000000;fill-opacity:1">
			<path
   style="fill:#000000;fill-opacity:1"
   inkscape:connector-curvature="0"
   id="path3579"
   d="m 79.6,418.3 c -2.8,0 -5.1,-2.3 -5.1,-5.1 v -71 c 0,-2.8 2.3,-5.1 5.1,-5.1 2.8,0 5.1,2.3 5.1,5.1 v 71 c 0,2.9 -2.3,5.1 -5.1,5.1 z" />
		</g>
		<g
   id="g3581"
   style="fill:#000000;fill-opacity:1">
			<path
   style="fill:#000000;fill-opacity:1"
   inkscape:connector-curvature="0"
   id="path3583"
   d="m 153.4,418.3 c -2.8,0 -5.1,-2.3 -5.1,-5.1 v -71 c 0,-2.8 2.3,-5.1 5.1,-5.1 2.8,0 5.1,2.3 5.1,5.1 v 71 c -0.1,2.9 -2.3,5.1 -5.1,5.1 z" />
		</g>
		<g
   id="g3585"
   style="fill:#000000;fill-opacity:1">
			<path
   style="fill:#000000;fill-opacity:1"
   inkscape:connector-curvature="0"
   id="path3587"
   d="m 116.5,418.3 c -2.8,0 -5.1,-2.3 -5.1,-5.1 v -71 c 0,-2.8 2.3,-5.1 5.1,-5.1 2.8,0 5.1,2.3 5.1,5.1 v 71 c -0.1,2.9 -2.3,5.1 -5.1,5.1 z" />
		</g>
		<g
   id="g3589"
   style="fill:#000000;fill-opacity:1">
			<path
   style="fill:#000000;fill-opacity:1"
   inkscape:connector-curvature="0"
   id="path3591"
   d="m 419.2,478 h -201 c -2.8,0 -5.1,-2.3 -5.1,-5.1 V 162.1 c 0,-2.8 2.3,-5.1 5.1,-5.1 h 201 c 2.8,0 5.1,2.3 5.1,5.1 V 473 c 0,2.8 -2.3,5 -5.1,5 z M 223.3,467.9 H 414.2 V 167.2 H 223.3 v 300.7 z" />
		</g>
		<g
   id="g3593"
   style="fill:#000000;fill-opacity:1">
			<path
   style="fill:#000000;fill-opacity:1"
   inkscape:connector-curvature="0"
   id="path3595"
   d="m 396,167.2 c -2.8,0 -5.1,-2.3 -5.1,-5.1 V 126.6 H 246.5 v 35.5 c 0,2.8 -2.3,5.1 -5.1,5.1 -2.8,0 -5.1,-2.3 -5.1,-5.1 v -40.5 c 0,-2.8 2.3,-5.1 5.1,-5.1 H 396 c 2.8,0 5.1,2.3 5.1,5.1 v 40.5 c -0.1,2.8 -2.3,5.1 -5.1,5.1 z" />
		</g>
		<g
   id="g3597"
   style="fill:#000000;fill-opacity:1">
			<path
   style="fill:#000000;fill-opacity:1"
   inkscape:connector-curvature="0"
   id="path3599"
   d="m 348.1,283.4 h -54.2 c -1.8,0 -3.5,-1 -4.4,-2.5 L 262.4,234 c -0.9,-1.6 -0.9,-3.5 0,-5.1 L 289.5,182 c 0.9,-1.6 2.6,-2.5 4.4,-2.5 h 54.2 c 1.8,0 3.5,1 4.4,2.5 l 27.1,46.9 c 0.9,1.6 0.9,3.5 0,5.1 l -27.1,46.9 c -0.9,1.5 -2.6,2.5 -4.4,2.5 z m -51.2,-10.1 h 48.3 l 24.2,-41.9 -24.2,-41.9 h -48.3 l -24.2,41.9 24.2,41.9 z" />
		</g>
		<g
   id="g3601"
   style="fill:#000000;fill-opacity:1">
			<path
   style="fill:#000000;fill-opacity:1"
   inkscape:connector-curvature="0"
   id="path3603"
   d="m 321,283.4 c -2.8,0 -5.1,-2.3 -5.1,-5.1 v -93.9 c 0,-2.8 2.3,-5.1 5.1,-5.1 2.8,0 5.1,2.3 5.1,5.1 v 93.9 c 0,2.8 -2.3,5.1 -5.1,5.1 z" />
		</g>
		<g
   id="g3605"
   style="fill:#000000;fill-opacity:1">
			<path
   style="fill:#000000;fill-opacity:1"
   inkscape:connector-curvature="0"
   id="path3607"
   d="M 375.2,236.5 H 266.8 c -2.8,0 -5.1,-2.3 -5.1,-5.1 0,-2.8 2.3,-5.1 5.1,-5.1 h 108.4 c 2.8,0 5.1,2.3 5.1,5.1 0,2.8 -2.3,5.1 -5.1,5.1 z" />
		</g>
		<g
   id="g3609"
   style="fill:#000000;fill-opacity:1">
			<path
   style="fill:#000000;fill-opacity:1"
   inkscape:connector-curvature="0"
   id="path3611"
   d="m 362.9,215.1 h -83.7 c -2.8,0 -5.1,-2.3 -5.1,-5.1 0,-2.8 2.3,-5.1 5.1,-5.1 h 83.7 c 2.8,0 5.1,2.3 5.1,5.1 -0.1,2.8 -2.3,5.1 -5.1,5.1 z" />
		</g>
		<g
   id="g3613"
   style="fill:#000000;fill-opacity:1">
			<path
   style="fill:#000000;fill-opacity:1"
   inkscape:connector-curvature="0"
   id="path3615"
   d="m 362.9,256.2 h -83.7 c -2.8,0 -5.1,-2.3 -5.1,-5.1 0,-2.8 2.3,-5.1 5.1,-5.1 h 83.7 c 2.8,0 5.1,2.3 5.1,5.1 0,2.8 -2.3,5.1 -5.1,5.1 z" />
		</g>
		<g
   id="g3617"
   style="fill:#000000;fill-opacity:1">
			<path
   style="fill:#000000;fill-opacity:1"
   inkscape:connector-curvature="0"
   id="path3619"
   d="M 393.8,418.3 H 241.2 c -2.8,0 -5.1,-2.3 -5.1,-5.1 v -71 c 0,-2.8 2.3,-5.1 5.1,-5.1 h 152.6 c 2.8,0 5.1,2.3 5.1,5.1 v 71 c 0,2.9 -2.3,5.1 -5.1,5.1 z M 246.3,408.2 H 388.8 V 347.4 H 246.3 v 60.8 z" />
		</g>
		<g
   id="g3621"
   style="fill:#000000;fill-opacity:1">
			<path
   style="fill:#000000;fill-opacity:1"
   inkscape:connector-curvature="0"
   id="path3623"
   d="M 393.8,382.9 H 241.2 c -2.8,0 -5.1,-2.3 -5.1,-5.1 0,-2.8 2.3,-5.1 5.1,-5.1 h 152.6 c 2.8,0 5.1,2.3 5.1,5.1 0,2.8 -2.3,5.1 -5.1,5.1 z" />
		</g>
		<g
   id="g3625"
   style="fill:#000000;fill-opacity:1">
			<path
   style="fill:#000000;fill-opacity:1"
   inkscape:connector-curvature="0"
   id="path3627"
   d="m 280.6,418.3 c -2.8,0 -5.1,-2.3 -5.1,-5.1 v -71 c 0,-2.8 2.3,-5.1 5.1,-5.1 2.8,0 5.1,2.3 5.1,5.1 v 71 c 0,2.9 -2.3,5.1 -5.1,5.1 z" />
		</g>
		<g
   id="g3629"
   style="fill:#000000;fill-opacity:1">
			<path
   style="fill:#000000;fill-opacity:1"
   inkscape:connector-curvature="0"
   id="path3631"
   d="m 354.4,418.3 c -2.8,0 -5.1,-2.3 -5.1,-5.1 v -71 c 0,-2.8 2.3,-5.1 5.1,-5.1 2.8,0 5.1,2.3 5.1,5.1 v 71 c 0,2.9 -2.3,5.1 -5.1,5.1 z" />
		</g>
		<g
   id="g3633"
   style="fill:#000000;fill-opacity:1">
			<path
   style="fill:#000000;fill-opacity:1"
   inkscape:connector-curvature="0"
   id="path3635"
   d="m 317.5,418.3 c -2.8,0 -5.1,-2.3 -5.1,-5.1 v -71 c 0,-2.8 2.3,-5.1 5.1,-5.1 2.8,0 5.1,2.3 5.1,5.1 v 71 c 0,2.9 -2.3,5.1 -5.1,5.1 z" />
		</g>
		<g
   id="g3637"
   style="fill:#000000;fill-opacity:1">
			<path
   style="fill:#000000;fill-opacity:1"
   inkscape:connector-curvature="0"
   id="path3639"
   d="m 464.2,478 h -45 c -2.8,0 -5.1,-2.3 -5.1,-5.1 0,-2.8 2.3,-5.1 5.1,-5.1 h 39.9 v -321 H 401 V 162 c 0,2.8 -2.3,5.1 -5.1,5.1 -2.8,0 -5.1,-2.3 -5.1,-5.1 v -20.3 c 0,-2.8 2.3,-5.1 5.1,-5.1 h 68.2 c 2.8,0 5.1,2.3 5.1,5.1 V 473 c 0.1,2.8 -2.2,5 -5,5 z" />
		</g>
	</g><g
   transform="translate(-833.70225,813.53571)"
   id="g3641">
		<path
   style="fill:#0e1131"
   inkscape:connector-curvature="0"
   id="path3643"
   d="M 795.6,366 H 685.4 c -1.8,0 -3.5,-1 -4.4,-2.5 l -55,-95.4 c -0.9,-1.6 -0.9,-3.5 0,-5.1 l 55.1,-95.4 c 0.9,-1.6 2.6,-2.5 4.4,-2.5 h 110.1 c 1.8,0 3.5,1 4.4,2.5 l 55.1,95.4 c 0.9,1.6 0.9,3.5 0,5.1 L 800,363.5 c -1,1.6 -2.6,2.5 -4.4,2.5 z M 688.4,355.9 h 104.3 l 52.1,-90.3 -52.1,-90.3 H 688.4 l -52.1,90.3 52.1,90.3 z" />
	</g><g
   transform="translate(-833.70225,813.53571)"
   id="g3645">
		<path
   style="fill:#0e1131"
   inkscape:connector-curvature="0"
   id="path3647"
   d="m 697.9,366 c -2.8,0 -5.1,-2.3 -5.1,-5.1 V 170.2 c 0,-2.8 2.3,-5.1 5.1,-5.1 2.8,0 5.1,2.3 5.1,5.1 V 361 c -0.1,2.8 -2.3,5 -5.1,5 z" />
	</g><g
   transform="translate(-833.70225,813.53571)"
   id="g3649">
		<path
   style="fill:#0e1131"
   inkscape:connector-curvature="0"
   id="path3651"
   d="m 782.3,366 c -2.8,0 -5.1,-2.3 -5.1,-5.1 V 170.2 c 0,-2.8 2.3,-5.1 5.1,-5.1 2.8,0 5.1,2.3 5.1,5.1 V 361 c 0,2.8 -2.3,5 -5.1,5 z" />
	</g><g
   transform="translate(-833.70225,813.53571)"
   id="g3653">
		<path
   style="fill:#0e1131"
   inkscape:connector-curvature="0"
   id="path3655"
   d="m 697.9,270.7 h -67.5 c -2.8,0 -5.1,-2.3 -5.1,-5.1 0,-2.8 2.3,-5.1 5.1,-5.1 h 67.5 c 2.8,0 5.1,2.3 5.1,5.1 -0.1,2.8 -2.3,5.1 -5.1,5.1 z" />
	</g><g
   transform="translate(-833.70225,813.53571)"
   id="g3657">
		<path
   style="fill:#0e1131"
   inkscape:connector-curvature="0"
   id="path3659"
   d="m 850.6,270.7 h -68.3 c -2.8,0 -5.1,-2.3 -5.1,-5.1 0,-2.8 2.3,-5.1 5.1,-5.1 h 68.3 c 2.8,0 5.1,2.3 5.1,5.1 0,2.8 -2.3,5.1 -5.1,5.1 z" />
	</g><g
   transform="translate(-833.70225,813.53571)"
   id="g3661">
		<path
   style="fill:#0e1131"
   inkscape:connector-curvature="0"
   id="path3663"
   d="m 697.9,227.2 h -42.4 c -2.8,0 -5.1,-2.3 -5.1,-5.1 0,-2.8 2.3,-5.1 5.1,-5.1 h 42.4 c 2.8,0 5.1,2.3 5.1,5.1 0,2.8 -2.3,5.1 -5.1,5.1 z" />
	</g><g
   transform="translate(-833.70225,813.53571)"
   id="g3665">
		<path
   style="fill:#0e1131"
   inkscape:connector-curvature="0"
   id="path3667"
   d="m 825.5,227.2 h -40.9 c -2.8,0 -5.1,-2.3 -5.1,-5.1 0,-2.8 2.3,-5.1 5.1,-5.1 h 40.9 c 2.8,0 5.1,2.3 5.1,5.1 0,2.8 -2.3,5.1 -5.1,5.1 z" />
	</g><g
   transform="translate(-833.70225,813.53571)"
   id="g3669">
		<path
   style="fill:#0e1131"
   inkscape:connector-curvature="0"
   id="path3671"
   d="m 697.9,310.7 h -42.4 c -2.8,0 -5.1,-2.3 -5.1,-5.1 0,-2.8 2.3,-5.1 5.1,-5.1 h 42.4 c 2.8,0 5.1,2.3 5.1,5.1 -0.1,2.8 -2.3,5.1 -5.1,5.1 z" />
	</g><g
   transform="translate(-833.70225,813.53571)"
   id="g3673">
		<path
   style="fill:#0e1131"
   inkscape:connector-curvature="0"
   id="path3675"
   d="m 825.5,310.7 h -43.2 c -2.8,0 -5.1,-2.3 -5.1,-5.1 0,-2.8 2.3,-5.1 5.1,-5.1 h 43.2 c 2.8,0 5.1,2.3 5.1,5.1 0,2.8 -2.3,5.1 -5.1,5.1 z" />
	</g><g
   transform="translate(-833.70225,813.53571)"
   id="g3703">
		<path
   style="fill:#0e1131"
   inkscape:connector-curvature="0"
   id="path3705"
   d="M 940,119 H 535.7 c -2.8,0 -5.1,-2.3 -5.1,-5.1 0,-2.8 2.3,-5.1 5.1,-5.1 H 940 c 2.8,0 5.1,2.3 5.1,5.1 0,2.8 -2.3,5.1 -5.1,5.1 z" />
	</g><g
   transform="translate(-12.1,245.02186)"
   id="g3707"
   style="fill:#000000;fill-opacity:1">
		<path
   style="fill:#000000;fill-opacity:1"
   inkscape:connector-curvature="0"
   id="path3709"
   d="M 241.2,146.9 H 195 c -2.8,0 -5.1,-2.3 -5.1,-5.1 0,-2.8 2.3,-5.1 5.1,-5.1 h 46.2 c 2.8,0 5.1,2.3 5.1,5.1 0,2.8 -2.3,5.1 -5.1,5.1 z" />
	</g><g
   transform="translate(-176.6698,241.28163)"
   id="g3711"
   style="fill:#000000;fill-opacity:1">
		<path
   style="fill:#000000;fill-opacity:1"
   inkscape:connector-curvature="0"
   id="path3713"
   d="m 1275.6,146.9 h -46.2 c -2.8,0 -5.1,-2.3 -5.1,-5.1 0,-2.8 2.3,-5.1 5.1,-5.1 h 46.2 c 2.8,0 5.1,2.3 5.1,5.1 0,2.8 -2.3,5.1 -5.1,5.1 z" />
	</g>
<path
   style="fill:#ffffff;stroke:#000000;stroke-width:5.0630002;stroke-miterlimit:4;stroke-opacity:1;stroke-dasharray:none"
   inkscape:connector-curvature="0"
   d="M 573.41585,142.34568 V 88.397212 H 445.2826 v 53.948468 l 8.64391,3.02515 h 112.37082 l 7.11852,-3.02515 z"
   id="path3849" /><path
   style="stroke:#000000;stroke-width:5.0630002;stroke-linejoin:round;stroke-miterlimit:4;stroke-opacity:1;stroke-dasharray:none"
   inkscape:connector-curvature="0"
   d="m 467.04492,86.985472 h -23.23687 v 56.519848 l 1.01693,0.40335 8.33883,2.97473 0.25424,0.0504 h 113.23521 l 0.30508,-0.10084 6.91513,-2.97473 0.96609,-0.40335 V 86.985452 H 467.04492 z m 15.81327,3.17641 h 90.40512 l -1.57624,-1.61342 V 142.3961 l 0.96608,-1.41174 -6.91513,2.92431 0.61016,-0.10084 H 453.72313 l 0.50846,0.10084 -8.28798,-2.97473 1.01693,1.51258 V 88.548462 l -1.57624,1.61342 h 37.47389 z"
   id="path3851" /><path
   style="fill:#ffffff;stroke:#000000;stroke-width:5.0630002;stroke-miterlimit:4;stroke-opacity:1;stroke-dasharray:none"
   inkscape:connector-curvature="0"
   d="M 848.08878,88.397212 H 719.95554 v 53.948468 l 7.11342,3.02515 h 112.37083 l 8.63882,-3.02515 V 88.397212 z"
   id="path3853" /><path
   style="stroke:#000000;stroke-width:5.0630002;stroke-linejoin:round;stroke-miterlimit:4;stroke-opacity:1;stroke-dasharray:none"
   inkscape:connector-curvature="0"
   d="M 740.59923,86.985472 H 718.36912 V 143.4549 l 0.9661,0.40335 6.91512,2.97473 0.30508,0.10084 h 113.38775 v -0.0504 l 8.64391,-2.97473 1.01693,-0.40335 V 86.985492 H 740.58906 z m 14.13024,3.17641 h 93.35423 l -2.03386,-1.61342 V 142.3961 l 1.01693,-1.46216 -8.13544,2.92431 0.50846,-0.0504 H 726.86558 l 0.66609,0.10084 -6.91512,-2.97473 0.96607,1.46216 V 88.548482 l -1.62707,1.563 h 34.77901 v 0.0504 z"
   id="path3855" /><path
   style="fill:#ffffff;stroke:#000000;stroke-width:5.0630002;stroke-miterlimit:4;stroke-opacity:1;stroke-dasharray:none"
   inkscape:connector-curvature="0"
   d="M 453.72313,145.37083 H 566.19565 V 382.23992 H 453.72313 V 145.37083 z"
   id="path3857" /><path
   style="stroke:#000000;stroke-width:5.0630002;stroke-linejoin:round;stroke-miterlimit:4;stroke-opacity:1;stroke-dasharray:none"
   inkscape:connector-curvature="0"
   d="m 453.72313,146.93382 h 112.47251 l -1.62709,-1.56299 v 236.86909 l 1.62709,-1.56299 H 453.72313 l 1.57624,1.56299 V 145.37083 l -1.57624,1.56299 z m 0,236.91951 H 567.77188 V 143.75741 H 452.09604 v 240.09592 h 1.62709 z"
   id="path3859" /><path
   style="fill:#ffffff;stroke:#000000;stroke-width:5.0630002;stroke-miterlimit:4;stroke-opacity:1;stroke-dasharray:none"
   inkscape:connector-curvature="0"
   d="M 839.44487,145.37083 H 727.0232 V 382.23992 H 839.44487 V 145.37083 z"
   id="path3861" /><path
   style="stroke:#000000;stroke-width:5.0630002;stroke-linejoin:round;stroke-miterlimit:4;stroke-opacity:1;stroke-dasharray:none"
   inkscape:connector-curvature="0"
   d="M 839.44487,143.75741 H 725.44696 V 383.85333 H 840.97027 V 143.75741 h -1.5254 z m 0,236.91952 H 727.0232 l 1.62201,1.56299 V 145.37083 l -1.62201,1.56299 h 112.42167 l -1.52539,-1.56299 v 236.86909 l 1.52539,-1.56299 z"
   id="path3863" /><path
   style="fill:#ffffff;stroke:#000000;stroke-width:5.0630002;stroke-miterlimit:4;stroke-opacity:1;stroke-dasharray:none"
   inkscape:connector-curvature="0"
   d="m 646.63486,66.313622 c -27.15206,0 -54.71088,23.54574 -54.71088,52.990508 h 109.37088 c 0,-29.444768 -27.50797,-52.990508 -54.66001,-52.990508 z"
   id="path3873" /><path
   style="stroke:#000000;stroke-width:5.0630002;stroke-miterlimit:4;stroke-opacity:1;stroke-dasharray:none"
   inkscape:connector-curvature="0"
   d="m 646.63486,64.700212 c -26.59275,0 -56.28711,23.34406 -56.28711,54.603918 v 1.61342 H 702.8711 v -1.61342 c 0,-31.259858 -29.69945,-54.603918 -56.23625,-54.603918 z m 54.66,53.040928 H 591.92398 l 1.62709,1.56299 c 0,-29.444768 28.01644,-51.427508 53.03293,-51.427508 25.06734,0 53.08377,21.98274 53.08377,51.427508 l 1.62709,-1.56299 z"
   id="path3875" /><path
   style="fill:#ffffff;stroke:#000000;stroke-width:5.0630002;stroke-miterlimit:4;stroke-opacity:1;stroke-dasharray:none"
   inkscape:connector-curvature="0"
   d="m 590.1952,145.37083 h 112.87929 l 6.61513,-2.01677 V 119.15288 H 583.59024 v 24.20118 l 6.60496,2.01677 z"
   id="path3877" /><path
   style="stroke:#000000;stroke-width:5.0630002;stroke-linejoin:round;stroke-miterlimit:4;stroke-opacity:1;stroke-dasharray:none"
   inkscape:connector-curvature="0"
   d="m 646.63486,117.74114 h -64.47341 v 26.6213 l 1.11862,0.40336 6.20328,2.06718 0.25423,0.10084 h 113.79453 l 0.25932,-0.10084 6.20327,-2.06718 1.06778,-0.40336 v -26.6213 h -64.42255 z m 61.2192,1.56299 v 23.94909 l 1.06778,-1.51257 -6.20836,2.1176 0.5644,-0.10084 H 589.99182 l 0.50846,0.10084 -6.20328,-2.1176 1.06778,1.51257 v -23.94909 l -1.57624,1.61342 H 709.4303 l -1.57624,-1.61342 z"
   id="path3879" /><path
   style="fill:#ffffff;stroke:#000000;stroke-width:5.0630002;stroke-miterlimit:4;stroke-opacity:1;stroke-dasharray:none"
   inkscape:connector-curvature="0"
   d="M 591.21213,378.81142 H 702.05756 V 145.37083 H 591.21213 v 233.44059 z"
   id="path3881" /><path
   style="stroke:#000000;stroke-width:5.0630002;stroke-linejoin:round;stroke-miterlimit:4;stroke-opacity:1;stroke-dasharray:none"
   inkscape:connector-curvature="0"
   d="m 646.63486,143.75741 h -57.15151 v 236.8691 h 114.30299 v -236.8691 h -57.15148 z m 53.94815,1.61342 v 233.64226 l 1.58133,-1.56299 H 591.06468 l 1.57624,1.56299 V 145.37083 l -1.57624,1.56299 h 111.09966 l -1.58133,-1.56299 z"
   id="path3883" /><path
   style="fill:#ffffff;stroke:#000000;stroke-width:5.0630002;stroke-linejoin:round;stroke-miterlimit:4;stroke-opacity:1;stroke-dasharray:none"
   inkscape:connector-curvature="0"
   d="m 704.34565,685.86394 h 205.7759 c 0,0 -17.79629,-30.75567 -37.62643,-119.99754 -18.30476,-82.18318 -11.6947,-163.35799 -11.6947,-163.35799 H 427.63886 c 0,0 6.61005,81.17481 -11.64386,163.35799 -19.83014,89.24187 -37.62643,119.99754 -37.62643,119.99754 h 210.86055"
   id="path3889" /><path
   style="stroke:#000000;stroke-width:5.0630002;stroke-linejoin:round;stroke-miterlimit:4;stroke-opacity:1;stroke-dasharray:none"
   inkscape:connector-curvature="0"
   d="M 704.34565,686.87233 H 912.1554 l -1.01692,-2.01677 c -0.50847,0 -17.79629,-31.76405 -37.62135,-119.49335 -17.79629,-80.67061 -11.6947,-161.94626 -11.6947,-162.75296 l 0.50847,-1.41174 H 426.22024 l 0.10169,1.41174 c 0.0509,0.8067 6.40667,82.08235 -11.64385,162.75296 -19.52507,87.7293 -37.2705,119.49335 -37.42304,119.49335 l -0.1017,0.50923 h -0.0508 l -0.40678,1.51258 H 589.2342 v -2.526 H 378.37366 l 1.16947,2.01676 c 0.20339,-0.50923 18.10136,-31.76909 37.72812,-119.99753 18.15221,-81.679 11.7964,-163.30758 11.6947,-164.01345 l -1.32201,1.46216 H 860.8055 l -1.52539,-1.41174 c 0,0.80671 -6.61514,82.28403 11.6947,163.96303 8.13544,36.81101 21.35554,87.72929 37.62134,119.99753 l 1.53048,-2.01676 H 704.35074 v 2.52096 z"
   id="path3891" /><path
   style="stroke:#000000;stroke-width:5.0630002;stroke-linejoin:round;stroke-miterlimit:4;stroke-opacity:1;stroke-dasharray:none"
   inkscape:connector-curvature="0"
   d="m 2438.4949,800.49539 h 1.0169 V 762.17685 H 2232.058 v 2.52096 h 206.4369 l -1.5254,-1.00839 v 35.80263 l 1.5254,-1.51762 h -531.8547 l 1.5254,1.51762 v -35.80263 l -1.5254,1.00839 h 211.5215 v -2.52096 h -212.5384 v 38.31854 h 532.8716 z"
   id="path3893" /><path
   style="stroke:#000000;stroke-width:5.0630002;stroke-miterlimit:4;stroke-opacity:1;stroke-dasharray:none"
   inkscape:connector-curvature="0"
   d="m 700.0237,149.40436 v -5.54611 H 592.73753 v 5.54611 H 700.0237 z"
   id="path3895" /><path
   style="stroke:#000000;stroke-width:5.0630002;stroke-linejoin:round;stroke-miterlimit:4;stroke-opacity:1;stroke-dasharray:none"
   inkscape:connector-curvature="0"
   d="m 859.27502,405.02937 v -5.04192 H 429.11341 v 5.04192 h 430.16161 z"
   id="path3907" /><path
   style="stroke:#000000;stroke-width:5.0630002;stroke-linejoin:round;stroke-miterlimit:4;stroke-opacity:1;stroke-dasharray:none"
   inkscape:connector-curvature="0"
   d="m 704.44736,682.8388 h 204.14879 v 5.5461 H 704.44736 v -5.5461 z"
   id="path3909" /><path
   style="stroke:#000000;stroke-width:5.0630002;stroke-linejoin:round;stroke-miterlimit:4;stroke-opacity:1;stroke-dasharray:none"
   inkscape:connector-curvature="0"
   d="m 379.4872,682.8388 h 209.69107 v 5.5461 H 379.4872 v -5.5461 z"
   id="path3911" /><rect
   y="342.20349"
   x="427.46466"
   height="55.103973"
   width="429.0238"
   id="rect4772"
   style="fill:#ffffff;fill-opacity:1;fill-rule:nonzero;stroke:none" /><path
   style="fill:#ffffff;fill-opacity:1;fill-rule:nonzero;stroke:#000000;stroke-width:5.0630002;stroke-linejoin:round;stroke-miterlimit:4;stroke-opacity:1;stroke-dasharray:none"
   inkscape:connector-curvature="0"
   d="m 467.90931,340.13994 h -41.84669 v 63.62895 l 1.22031,0.30251 9.71169,2.31928 0.20339,0.0504 h 419.02622 l 0.51356,-0.20167 4.57109,-2.31928 1.01693,-0.40336 v -63.37683 h -394.4165 z m 29.38929,3.1764 h 363.50182 l -1.5254,-1.56299 v 60.75506 l 0.50847,-1.41174 -4.5762,2.31928 0.51356,-0.15125 H 437.40648 l 0.35592,0.0504 -9.76253,-2.31928 1.22031,1.51257 v -60.80546 l -1.57624,1.61341 h 69.65974 z"
   id="path3887" /><g
   transform="translate(-86.41929,316.75423)"
   id="g3681"
   style="fill:#000000;fill-opacity:1;stroke-linejoin:round">
		<path
   style="fill:#000000;fill-opacity:1;stroke-linejoin:round"
   inkscape:connector-curvature="0"
   id="path3683"
   d="m 591.8,41.6 c 0,-1.7 1.4,-3.1 3.1,-3.1 h 0.6 c 1.5,0 2.4,0.7 3.2,1.8 l 12,15.8 V 41.4 c 0,-1.7 1.4,-3.1 3.1,-3.1 1.7,0 3.1,1.4 3.1,3.1 V 64 c 0,1.7 -1.4,3.1 -3.1,3.1 h -0.2 c -1.5,0 -2.4,-0.7 -3.2,-1.8 L 597.9,48.9 v 15.2 c 0,1.7 -1.4,3.1 -3.1,3.1 -1.7,0 -3.1,-1.4 -3.1,-3.1 V 41.6 z" />
		<path
   style="fill:#000000;fill-opacity:1;stroke-linejoin:round"
   inkscape:connector-curvature="0"
   id="path3685"
   d="m 622.5,52.9 0,0 c 0,-8.1 6.4,-14.7 15.1,-14.7 8.8,0 15,6.5 15,14.6 v 0.1 c 0,8.1 -6.4,14.7 -15.1,14.7 -8.7,-0.2 -15,-6.7 -15,-14.7 z m 23.7,0 0,0 c 0,-4.9 -3.6,-9 -8.6,-9 -5,0 -8.5,4 -8.5,8.8 v 0.1 c 0,4.9 3.6,8.9 8.6,8.9 5,0 8.5,-4 8.5,-8.8 z" />
		<path
   style="fill:#000000;fill-opacity:1;stroke-linejoin:round"
   inkscape:connector-curvature="0"
   id="path3687"
   d="m 658.2,41.7 c 0,-1.7 1.4,-3.1 3.1,-3.1 h 7.9 c 8.9,0 15.1,6.1 15.1,14.1 v 0.1 c 0,8 -6.2,14.2 -15.1,14.2 h -7.9 c -1.7,0 -3.1,-1.4 -3.1,-3.1 V 41.7 z m 11.1,19.6 c 5.1,0 8.5,-3.4 8.5,-8.5 v -0.1 c 0,-5 -3.4,-8.6 -8.5,-8.6 h -4.8 v 17.1 h 4.8 z" />
		<path
   style="fill:#000000;fill-opacity:1;stroke-linejoin:round"
   inkscape:connector-curvature="0"
   id="path3689"
   d="M 689.9,63.8 V 41.7 c 0,-1.7 1.4,-3.1 3.1,-3.1 h 15.7 c 1.5,0 2.8,1.3 2.8,2.8 0,1.5 -1.3,2.8 -2.8,2.8 H 696.1 V 50 H 707 c 1.5,0 2.8,1.3 2.8,2.8 0,1.5 -1.3,2.8 -2.8,2.8 h -10.8 v 6 H 709 c 1.5,0 2.8,1.3 2.8,2.8 0,1.5 -1.3,2.8 -2.8,2.8 h -15.9 c -1.8,-0.2 -3.2,-1.6 -3.2,-3.4 z" />
		<path
   style="fill:#000000;fill-opacity:1;stroke-linejoin:round"
   inkscape:connector-curvature="0"
   id="path3691"
   d="m 716.5,64 c -0.7,-0.5 -1.2,-1.4 -1.2,-2.3 0,-1.6 1.3,-2.9 2.9,-2.9 0.8,0 1.4,0.3 1.8,0.6 2.1,1.6 4.5,2.6 7.3,2.6 2.6,0 4.1,-1 4.1,-2.7 v -0.1 c 0,-1.6 -1,-2.4 -5.7,-3.6 -5.7,-1.5 -9.4,-3 -9.4,-8.7 v -0.1 c 0,-5.1 4.1,-8.6 9.9,-8.6 3.4,0 6.4,0.9 9,2.5 0.7,0.4 1.4,1.3 1.4,2.5 0,1.6 -1.3,2.9 -2.9,2.9 -0.6,0 -1.1,-0.2 -1.6,-0.4 -2.1,-1.2 -4,-1.9 -6,-1.9 -2.4,0 -3.6,1.1 -3.6,2.5 v 0.1 c 0,1.9 1.2,2.5 6.1,3.7 5.8,1.5 9,3.6 9,8.5 v 0.1 c 0,5.6 -4.3,8.8 -10.4,8.8 -3.7,-0.1 -7.5,-1.3 -10.7,-3.5 z" />
		<path
   style="fill:#000000;fill-opacity:1;stroke-linejoin:round"
   inkscape:connector-curvature="0"
   id="path3693"
   d="m 741.8,52.9 0,0 c 0,-8.1 6.1,-14.7 14.8,-14.7 4.3,0 7.1,1.1 9.5,2.9 0.6,0.5 1.2,1.4 1.2,2.5 0,1.7 -1.4,3 -3.1,3 -0.9,0 -1.4,-0.3 -1.9,-0.6 -1.7,-1.3 -3.6,-2 -5.8,-2 -4.8,0 -8.2,4 -8.2,8.8 v 0.1 c 0,4.9 3.4,8.9 8.2,8.9 2.6,0 4.4,-0.8 6.2,-2.2 0.5,-0.4 1.1,-0.7 1.9,-0.7 1.6,0 2.9,1.3 2.9,2.9 0,1 -0.5,1.7 -1.1,2.2 -2.6,2.2 -5.6,3.6 -10.1,3.6 C 748,67.4 741.8,61 741.8,52.9 z" />
		<path
   style="fill:#000000;fill-opacity:1;stroke-linejoin:round"
   inkscape:connector-curvature="0"
   id="path3695"
   d="m 773,41.5 c 0,-1.7 1.4,-3.1 3.1,-3.1 1.7,0 3.1,1.4 3.1,3.1 v 8.3 h 11.5 v -8.3 c 0,-1.7 1.4,-3.1 3.1,-3.1 1.7,0 3.1,1.4 3.1,3.1 v 22.6 c 0,1.7 -1.4,3.1 -3.1,3.1 -1.7,0 -3.1,-1.4 -3.1,-3.1 v -8.5 h -11.5 v 8.5 c 0,1.7 -1.4,3.1 -3.1,3.1 -1.7,0 -3.1,-1.4 -3.1,-3.1 V 41.5 z" />
		<path
   style="fill:#000000;fill-opacity:1;stroke-linejoin:round"
   inkscape:connector-curvature="0"
   id="path3697"
   d="m 802.5,52.9 0,0 c 0,-8.1 6.4,-14.7 15.1,-14.7 8.8,0 15,6.5 15,14.6 v 0.1 c 0,8.1 -6.4,14.7 -15.1,14.7 -8.7,-0.2 -15,-6.7 -15,-14.7 z m 23.7,0 0,0 c 0,-4.9 -3.6,-9 -8.6,-9 -5,0 -8.5,4 -8.5,8.8 v 0.1 c 0,4.9 3.6,8.9 8.6,8.9 5,0 8.5,-4 8.5,-8.8 z" />
		<path
   style="fill:#000000;fill-opacity:1;stroke-linejoin:round"
   inkscape:connector-curvature="0"
   id="path3699"
   d="m 837,52.9 0,0 c 0,-8.1 6.4,-14.7 15.1,-14.7 8.8,0 15,6.5 15,14.6 v 0.1 c 0,8.1 -6.4,14.7 -15.1,14.7 -8.7,-0.2 -15,-6.7 -15,-14.7 z m 23.6,0 0,0 c 0,-4.9 -3.6,-9 -8.6,-9 -5,0 -8.5,4 -8.5,8.8 v 0.1 c 0,4.9 3.6,8.9 8.6,8.9 5,0 8.5,-4 8.5,-8.8 z" />
		<path
   style="fill:#000000;fill-opacity:1;stroke-linejoin:round"
   inkscape:connector-curvature="0"
   id="path3701"
   d="m 872.7,41.5 c 0,-1.7 1.4,-3.1 3.1,-3.1 1.7,0 3.1,1.4 3.1,3.1 v 19.8 h 11.5 c 1.6,0 2.8,1.3 2.8,2.8 0,1.5 -1.3,2.8 -2.8,2.8 h -14.7 c -1.7,0 -3.1,-1.4 -3.1,-3.1 V 41.5 z" />
	</g><g
   transform="translate(-94.984707,353.2876)"
   id="g3677"
   style="stroke-width:5.0630002;stroke-linejoin:round;stroke-miterlimit:4;stroke-dasharray:none">
		<path
   style="fill:#0e1131;stroke-width:5.0630002;stroke-linejoin:round;stroke-miterlimit:4;stroke-dasharray:none"
   inkscape:connector-curvature="0"
   id="path3679"
   d="m 741.5,286 c -6.2,0 -11.3,-5.1 -11.3,-11.3 0,-6.2 5.1,-11.3 11.3,-11.3 6.2,0 11.3,5.1 11.3,11.3 0,6.2 -5.1,11.3 -11.3,11.3 z m 0,-12.4 c -0.6,0 -1.1,0.5 -1.1,1.1 0,0.6 0.5,1.1 1.1,1.1 0.6,0 1.1,-0.5 1.1,-1.1 0,-0.6 -0.5,-1.1 -1.1,-1.1 z" />
	</g><g
   id="g5021"
   transform="matrix(1.0423018,0,0,1.0931959,495.59835,794.83462)"><rect
     y="-94.772034"
     x="-112.1613"
     height="24.494997"
     width="506.65967"
     id="rect5019"
     style="fill:#ffffff;fill-opacity:1;fill-rule:nonzero;stroke:none" /><g
     id="g3523"
     transform="translate(-592.19436,-523.88077)">
		<path
   d="m 989.6,461.1 h -508 c -2.8,0 -5.1,-2.3 -5.1,-5.1 v -31.3 c 0,-2.8 2.3,-5.1 5.1,-5.1 h 507.9 c 2.8,0 5.1,2.3 5.1,5.1 V 456 c 0,2.9 -2.2,5.1 -5,5.1 z M 486.7,451 H 984.5 V 429.9 H 486.7 V 451 z"
   id="path3525"
   inkscape:connector-curvature="0"
   style="fill:#0e1131" />
	</g></g><rect
   style="fill:#ffffff;fill-opacity:1;fill-rule:nonzero;stroke:none"
   id="rect5026"
   width="117.31815"
   height="25.784208"
   x="587.39508"
   y="673.58429" /><path
   style="stroke:#000000;stroke-width:5.0630002;stroke-linejoin:round;stroke-miterlimit:4;stroke-opacity:1;stroke-dasharray:none"
   inkscape:connector-curvature="0"
   d="m 646.63486,486.70836 c -36.0502,0 -60.30399,32.77244 -60.30399,63.52811 v 170.92087 h 6.66089 V 550.23647 c 0,-27.22633 21.55893,-56.97362 53.6431,-56.97362 v -6.54944 z"
   id="path3905" /><path
   style="stroke:#000000;stroke-width:5.0630002;stroke-linejoin:round;stroke-miterlimit:4;stroke-opacity:1;stroke-dasharray:none"
   inkscape:connector-curvature="0"
   d="m 646.88909,493.26285 c 31.88076,0.50419 53.33799,29.74729 53.33799,56.97362 v 170.92087 h 6.6609 V 550.23647 c 0,-30.25148 -24.10125,-63.02391 -59.94806,-63.52811 l -0.0508,6.55953 z"
   id="path3901" /><path
   style="stroke:#000000;stroke-width:5.0630002;stroke-linejoin:round;stroke-miterlimit:4;stroke-opacity:1;stroke-dasharray:none"
   inkscape:connector-curvature="0"
   d="m 644.65183,487.21256 v 233.94478 h 3.96603 V 487.21256 h -3.96603 z"
   id="path3903" /><g
   id="layer1"
   transform="translate(830.39904,-596.3123)"><path
     style="fill:#000000;fill-opacity:1;fill-rule:evenodd;stroke:none"
     d="m -185.46206,597.01074 c -0.48902,0.0197 -0.94846,0.10524 -1.38753,0.35981 l -25.64361,14.80032 c -0.95552,0.55237 -1.54169,1.55847 -1.54169,2.67228 l 0.0513,39.72436 c 0,0.55255 0.28505,1.06562 0.77085,1.3363 0.47615,0.28499 1.06715,0.28499 1.54169,0 l 15.21144,-8.73646 c 0.96357,-0.57244 1.59308,-1.56817 1.59308,-2.67227 l 0,-18.5517 c 0,-1.10657 0.58212,-2.1222 1.54171,-2.67228 l 6.47513,-3.75138 c 0.48328,-0.2794 1.00212,-0.41113 1.5417,-0.41113 0.52851,0 1.0718,0.13156 1.5417,0.41113 l 6.47514,3.75138 c 0.95956,0.55008 1.5417,1.56571 1.5417,2.67228 l 0,18.5517 c 0,1.1041 0.6358,2.10625 1.59309,2.67227 l 15.21143,8.73646 c 0.47772,0.28499 1.06789,0.28499 1.5417,0 0.47218,-0.27068 0.77085,-0.78375 0.77085,-1.3363 l 0.0513,-39.72436 c 0,-1.11381 -0.57968,-2.11991 -1.5417,-2.67228 l -25.64354,-14.80032 c -0.43373,-0.25457 -0.8952,-0.33975 -1.38753,-0.35981 l -0.30834,0 z"
     id="path5130"
     inkscape:connector-curvature="0" /><path
     sodipodi:type="star"
     style="fill:#ffffff;fill-opacity:1;fill-rule:nonzero;stroke:#000000;stroke-width:8.60000038;stroke-linejoin:round;stroke-miterlimit:4;stroke-opacity:1;stroke-dasharray:none"
     id="path5154"
     sodipodi:sides="6"
     sodipodi:cx="527.94629"
     sodipodi:cy="-265.45227"
     sodipodi:r1="45.181374"
     sodipodi:r2="39.12822"
     sodipodi:arg1="0.53643546"
     sodipodi:arg2="1.0600342"
     inkscape:flatsided="true"
     inkscape:rounded="0"
     inkscape:randomized="0"
     d="m 566.7813,-242.36118 -39.41497,22.08656 -38.83502,-23.09109 0.57997,-45.17765 39.41497,-22.08656 38.83501,23.09109 z"
     transform="matrix(0.84999779,0,0,0.84999779,-772.74039,864.00991)" /><path
     transform="matrix(0.84999779,0,0,0.84999779,-494.74039,864.00991)"
     d="m 566.7813,-242.36118 -39.41497,22.08656 -38.83502,-23.09109 0.57997,-45.17765 39.41497,-22.08656 38.83501,23.09109 z"
     inkscape:randomized="0"
     inkscape:rounded="0"
     inkscape:flatsided="true"
     sodipodi:arg2="1.0600342"
     sodipodi:arg1="0.53643546"
     sodipodi:r2="39.12822"
     sodipodi:r1="45.181374"
     sodipodi:cy="-265.45227"
     sodipodi:cx="527.94629"
     sodipodi:sides="6"
     id="path5160"
     style="fill:#ffffff;fill-opacity:1;fill-rule:nonzero;stroke:#000000;stroke-width:8.60000038;stroke-linejoin:round;stroke-miterlimit:4;stroke-opacity:1;stroke-dasharray:none"
     sodipodi:type="star" /></g></svg>