<?xml version="1.0" encoding="utf-8"?>
<!-- Generator: Adobe Illustrator 18.1.0, SVG Export Plug-In . SVG Version: 6.00 Build 0)  -->
<!DOCTYPE svg PUBLIC "-//W3C//DTD SVG 1.1//EN" "http://www.w3.org/Graphics/SVG/1.1/DTD/svg11.dtd">
<svg version="1.1" id="Layer_1" xmlns="http://www.w3.org/2000/svg" xmlns:xlink="http://www.w3.org/1999/xlink" x="0px" y="0px"
	 viewBox="0 0 460 182.6" enable-background="new 0 0 460 182.6" xml:space="preserve">
<g>
	<path fill="#E12125" d="M5.6,88.1L5.6,88.1L5.6,88.1L5.6,88.1z M153.3,88.3l-0.1-0.2h0.1V88.3z M157.5,44.6L80.8,0.4
		c-0.9-0.5-1.9-0.5-2.8,0L1.4,44.6C0.5,45.1,0,46,0,47.1v88.5c0,1,0.5,1.9,1.4,2.4L78,182.2c0.4,0.3,0.9,0.4,1.4,0.4
		c0.5,0,1-0.1,1.4-0.4l76.6-44.2c0.9-0.5,1.4-1.4,1.4-2.4V47.1C158.9,46,158.3,45.1,157.5,44.6"/>
	<path fill="#FAC1CC" d="M6.8,83.2L6.8,83.2l-0.7,0V86h2.3L6.8,83.2"/>
	<path fill="#FAC1CC" d="M37,124.6c-0.4-0.4-0.4-1.1,0-1.5c2.6-2.6,4.8-9.9,6.4-21c1.2-8.5,1.6-16.4,1.6-16.5c0-0.5,0.5-1,1-1h67.3
		c0.5,0,1,0.4,1,1c0,0.1,0.6,9.9,2.2,20.4c2.6,17.4,5.6,23.5,7.6,25.6c0.4,0.4,0.4,1.1,0,1.5c-0.2,0.2-0.5,0.3-0.7,0.3
		s-0.5-0.1-0.7-0.3c-3.3-3.3-6.1-12.3-8.2-26.8c-1.3-8.7-1.9-16.9-2.1-19.6H46.9c-0.3,5.5-2.2,31.5-8.5,37.8
		C38,125,37.4,125,37,124.6L37,124.6z M108.2,95.2h-2.8c-0.3,0-0.6-0.3-0.6-0.6v-4.3c0-0.3,0.3-0.6,0.6-0.6s0.6,0.3,0.6,0.6v3.8h2.2
		c0.3,0,0.5,0.2,0.5,0.5C108.8,94.9,108.5,95.2,108.2,95.2L108.2,95.2z M103.7,92.4c0,1.6-1.2,2.8-2.9,2.8c-1.7,0-2.9-1.3-2.9-2.8v0
		c0-1.6,1.2-2.8,2.9-2.8C102.5,89.6,103.7,90.9,103.7,92.4L103.7,92.4L103.7,92.4z M91.3,92.5L91.3,92.5c0-1.6,1.2-2.8,2.9-2.8
		c1.7,0,2.9,1.3,2.9,2.8v0c0,1.6-1.2,2.8-2.9,2.8C92.5,95.3,91.3,94,91.3,92.5L91.3,92.5z M89,91.9v-1.6c0-0.3,0.3-0.6,0.6-0.6
		c0.3,0,0.6,0.3,0.6,0.6v4.4c0,0.3-0.3,0.6-0.6,0.6c-0.3,0-0.6-0.3-0.6-0.6V93h-2.2v1.6c0,0.3-0.3,0.6-0.6,0.6
		c-0.3,0-0.6-0.3-0.6-0.6v-4.4c0-0.3,0.3-0.6,0.6-0.6s0.6,0.3,0.6,0.6v1.6H89z M82.4,94.2c0.5,0,0.8-0.2,1.2-0.4
		c0.1-0.1,0.2-0.1,0.4-0.1c0.3,0,0.6,0.2,0.6,0.6c0,0.2-0.1,0.3-0.2,0.4c-0.5,0.4-1.1,0.7-1.9,0.7c-1.6,0-2.8-1.2-2.8-2.8v0
		c0-1.6,1.2-2.8,2.8-2.8c0.8,0,1.4,0.2,1.8,0.6c0.1,0.1,0.2,0.3,0.2,0.5c0,0.3-0.3,0.6-0.6,0.6c-0.2,0-0.3-0.1-0.4-0.1
		c-0.3-0.2-0.7-0.4-1.1-0.4c-0.9,0-1.6,0.8-1.6,1.7v0C80.8,93.4,81.5,94.2,82.4,94.2L82.4,94.2z M76.5,93c-1.1-0.3-1.8-0.6-1.8-1.7
		v0c0-1,0.8-1.6,1.9-1.6c0.7,0,1.2,0.2,1.7,0.5c0.1,0.1,0.3,0.2,0.3,0.5c0,0.3-0.2,0.6-0.6,0.6c-0.1,0-0.2,0-0.3-0.1
		c-0.4-0.2-0.8-0.4-1.1-0.4c-0.5,0-0.7,0.2-0.7,0.5v0c0,0.4,0.2,0.5,1.2,0.7c1.1,0.3,1.7,0.7,1.7,1.6v0c0,1.1-0.8,1.7-2,1.7
		c-0.7,0-1.4-0.2-2.1-0.7c-0.1-0.1-0.2-0.3-0.2-0.5c0-0.3,0.2-0.6,0.6-0.6c0.2,0,0.3,0.1,0.3,0.1c0.4,0.3,0.9,0.5,1.4,0.5
		c0.5,0,0.8-0.2,0.8-0.5v0C77.6,93.3,77.4,93.2,76.5,93L76.5,93z M72.9,91.9c0.3,0,0.5,0.2,0.5,0.5c0,0.3-0.2,0.5-0.5,0.5h-2.1v1.1
		h2.5c0.3,0,0.5,0.2,0.5,0.5c0,0.3-0.2,0.5-0.5,0.5h-3.1c-0.3,0-0.6-0.3-0.6-0.6v-4.3c0-0.3,0.3-0.6,0.6-0.6h3
		c0.3,0,0.5,0.2,0.5,0.5c0,0.3-0.2,0.5-0.5,0.5h-2.4v1.1L72.9,91.9L72.9,91.9z M63.5,94.6v-4.3c0-0.3,0.3-0.6,0.6-0.6h1.5
		c1.7,0,2.9,1.2,2.9,2.7v0c0,1.5-1.2,2.7-2.9,2.7h-1.5C63.7,95.2,63.5,94.9,63.5,94.6L63.5,94.6z M97.7,117.8L97.7,117.8
		c0,0.1-0.1,0.2-0.1,0.2l0,0l-6.6,11.4c-0.7-0.1-1.5-0.2-2.2-0.3l1.9-3.3h-4.4v3l-2.1-0.3v-25h-9.5v23.8l-2.1-0.3v-1.3h-4.4l0.5,0.8
		c-0.9-0.1-1.7-0.2-2.6-0.3l-4.8-8.4l0,0c0-0.1-0.1-0.1-0.1-0.2l0-0.1c0-0.1,0-0.2,0-0.2c0-0.1,0-0.2,0-0.2l0-0.1
		c0-0.1,0-0.1,0.1-0.2l0,0l8.6-14.9c0.2-0.3,0.5-0.5,0.9-0.5H88c0.4,0,0.7,0.2,0.9,0.5l8.6,14.9l0,0c0,0.1,0.1,0.1,0.1,0.2l0,0.1
		c0,0.1,0,0.2,0,0.2S97.7,117.7,97.7,117.8L97.7,117.8z M79.4,119.2c-0.9,0-1.6-0.7-1.6-1.6s0.7-1.6,1.6-1.6c0.9,0,1.6,0.7,1.6,1.6
		S80.3,119.2,79.4,119.2z M56.6,92.5L56.6,92.5c0-1.6,1.2-2.8,2.9-2.8c1.7,0,2.9,1.3,2.9,2.8v0c0,1.6-1.2,2.8-2.9,2.8
		C57.8,95.3,56.6,94,56.6,92.5L56.6,92.5z M55.5,94.6c0,0.3-0.3,0.6-0.6,0.6h0c-0.3,0-0.5-0.1-0.6-0.4l-2.4-3.2v2.9
		c0,0.3-0.3,0.6-0.6,0.6c-0.3,0-0.6-0.3-0.6-0.6v-4.3c0-0.3,0.3-0.6,0.6-0.6h0.1c0.3,0,0.5,0.1,0.6,0.4l2.3,3v-2.8
		c0-0.3,0.3-0.6,0.6-0.6c0.3,0,0.6,0.3,0.6,0.6L55.5,94.6L55.5,94.6z M11.3,88.3L11.3,88.3L11.3,88.3L11.3,88.3z M147.6,88.3v0.2
		l-0.1-0.2H147.6z M83.4,131.3c23.5,3.3,47.8,6.6,69.1,1.9c0.1-0.3,0.2-0.7,0.2-1v-10.6h-7c-0.6,0-1-0.5-1-1v-14.3c0-0.6,0.5-1,1-1
		h7v-8.5l-5.3-9.1l0,0c0-0.1-0.1-0.1-0.1-0.2l0-0.1c0-0.1,0-0.2,0-0.2s0-0.2,0-0.2l0-0.1c0-0.1,0-0.1,0.1-0.2l0,0l5.3-9.1v-5.9
		h-16.2v60.9c0,0.6-0.5,1-1,1c-0.6,0-1-0.5-1-1V70.5c0-0.6,0.5-1,1-1h5.1v-2.8h-26.4v6h3.9c0.6,0,1,0.5,1,1v7.2c0,0.6-0.5,1-1,1H41
		c-0.6,0-1-0.5-1-1v-7.2c0-0.6,0.5-1,1-1h3.9v-6h-27v2.8h5.1c0.6,0,1,0.5,1,1v54.4c0,0.6-0.5,1-1,1s-1-0.5-1-1V71.5H6.1v6.3l5,8.7
		l0,0c0,0.1,0.1,0.1,0.1,0.2l0,0.1c0,0.1,0,0.2,0,0.2v0c0,0.1,0,0.2,0,0.2l0,0.1c0,0.1,0,0.1-0.1,0.2l0,0l-5,8.7v9h6.8
		c0.6,0,1,0.5,1,1v14.3c0,0.6-0.5,1-1,1H6.1v10.6c0,0.2,0,0.5,0.1,0.7C28.4,123.7,55.2,127.4,83.4,131.3"/>
	<path fill="#FAC1CC" d="M6.1,69.4h9.7v-7.6H6.1C6.1,61.8,6.1,69.4,6.1,69.4z"/>
	<path fill="#FAC1CC" d="M6.1,112.3h5.7v-5.1H6.1V112.3z"/>
	<path fill="#FAC1CC" d="M8.4,88H6.1v3.1h0.5L8.4,88"/>
	<path fill="#FAC1CC" d="M6.1,119.5h5.7v-5.1H6.1V119.5z"/>
	<path fill="#FAC1CC" d="M100.8,90.7c-1,0-1.6,0.8-1.6,1.7v0c0,0.9,0.7,1.7,1.7,1.7s1.6-0.8,1.6-1.7v0
		C102.4,91.5,101.8,90.7,100.8,90.7"/>
	<path fill="#FAC1CC" d="M68.2,109.3h4.4v-5.6h-1.2L68.2,109.3"/>
	<path fill="#FAC1CC" d="M64,116.6h8.6v-5.2H67L64,116.6"/>
	<path fill="#FAC1CC" d="M67,123.9h5.6v-5.2H64L67,123.9"/>
	<path fill="#FAC1CC" d="M95.8,92.5L95.8,92.5c0-1-0.7-1.7-1.7-1.7c-1,0-1.6,0.8-1.6,1.7v0c0,0.9,0.7,1.7,1.7,1.7
		C95.1,94.2,95.8,93.4,95.8,92.5"/>
	<path fill="#FAC1CC" d="M87.4,103.7h-1.2v5.6h4.4L87.4,103.7"/>
	<path fill="#FAC1CC" d="M86.2,123.9h5.6l3-5.2h-8.6V123.9"/>
	<path fill="#FAC1CC" d="M67.2,92.5L67.2,92.5c0-1-0.7-1.7-1.6-1.7h-0.9v3.3h0.9C66.6,94.1,67.2,93.4,67.2,92.5"/>
	<path fill="#FAC1CC" d="M59.5,90.7c-1,0-1.6,0.8-1.6,1.7v0c0,0.9,0.7,1.7,1.7,1.7c1,0,1.6-0.8,1.6-1.7v0
		C61.1,91.5,60.5,90.7,59.5,90.7"/>
	<path fill="#FAC1CC" d="M86.2,111.3v5.2h8.6l-3-5.2L86.2,111.3"/>
	<path fill="#FAC1CC" d="M146.8,119.5h6v-5.1h-6V119.5z"/>
	<path fill="#FAC1CC" d="M47.6,40.1c-0.3-0.5-0.3-1.1,0-1.7c0.3-0.5,0.8-0.8,1.4-0.8h1.8l1.1-1.9c0.3-0.5,0.8-0.8,1.4-0.8
		c0.6,0,1.1,0.3,1.4,0.8l1.1,1.9h1.8c0.9,0,1.7,0.7,1.7,1.7c0,0.3-0.1,0.6-0.2,0.9l-0.9,1.5l0.9,1.6c0.3,0.5,0.3,1.1,0,1.7
		c-0.3,0.5-0.8,0.8-1.4,0.8h-1.8l-1.1,1.9c-0.3,0.5-0.8,0.8-1.4,0.8s-1.1-0.3-1.4-0.8l-1.1-1.9H49c-0.6,0-1.1-0.3-1.4-0.8
		c-0.3-0.5-0.3-1.1,0-1.7l0.9-1.6L47.6,40.1L47.6,40.1z M100.1,40.1c-0.3-0.5-0.3-1.1,0-1.7c0.3-0.5,0.8-0.8,1.4-0.8h1.8l1.1-1.9
		c0.3-0.5,0.8-0.8,1.4-0.8c0.6,0,1.1,0.3,1.4,0.8l1.1,1.9h1.8c0.9,0,1.7,0.7,1.7,1.7c0,0.3-0.1,0.6-0.2,0.9l-0.9,1.5l0.9,1.6
		c0.3,0.5,0.3,1.1,0,1.7c-0.3,0.5-0.8,0.8-1.4,0.8h-1.8l-1.1,1.9c-0.3,0.5-0.8,0.8-1.4,0.8c-0.6,0-1.1-0.3-1.4-0.8l-1.1-1.9h-1.8
		c-0.6,0-1.1-0.3-1.4-0.8c-0.3-0.5-0.3-1.1,0-1.7l0.9-1.6L100.1,40.1L100.1,40.1z M16.9,59.7c0.6,0,1,0.5,1,1v3.8h27V51.4
		c0-0.6,0.5-1,1-1H61c0.6,0,1,0.5,1,1v21.3h8.8V49.5h-3.1c-0.6,0-1-0.5-1-1v-4.3c0-0.6,0.5-1,1-1h2.5c0.3-4.4,3.8-8,8.2-8.5v-4.7h-3
		c-0.6,0-1-0.5-1-1c0-0.6,0.5-1,1-1h3V25c0-0.6,0.5-1,1-1c0.6,0,1,0.5,1,1v2.8h3c0.6,0,1,0.5,1,1c0,0.6-0.5,1-1,1h-3v4.7
		c4.4,0.5,7.9,4.1,8.2,8.5h2.5c0.6,0,1,0.5,1,1v4.3c0,0.6-0.5,1-1,1h-3.1v23.2h9.2V51.4c0-0.6,0.5-1,1-1h15.1c0.6,0,1,0.5,1,1v13.2
		h26.4v-3.8c0-0.6,0.5-1,1-1h11v-9.3c0-0.9-0.5-1.8-1.3-2.2L80.7,7.4c-0.8-0.5-1.8-0.5-2.6,0L7.4,48.2c-0.8,0.5-1.3,1.3-1.3,2.2v9.3
		L16.9,59.7"/>
	<path fill="#FAC1CC" d="M51.8,44.1l1.5,2.7l1.5-2.7h2.8l-1.4-2.4l1.4-2.4h-2.8l-1.5-2.7l-1.5,2.7H49l1.4,2.4L49,44.1H51.8"/>
	<path fill="#FAC1CC" d="M113,148.5c-0.5,0-1-0.4-1-1c0-0.5,0.4-1,1-1c0.5,0,1,0.4,1,1C114,148,113.5,148.5,113,148.5z M110.7,150
		l-30.8,17.8l0,0l-0.1,0l-0.1,0l0,0c-0.1,0-0.1,0-0.2,0l0,0h0l0,0c-0.1,0-0.1,0-0.2,0l0,0l0,0l0,0l-0.1,0l0,0l-31.3-18.1
		c-0.4-0.2-0.5-0.7-0.3-1c0.2-0.4,0.7-0.5,1-0.3l27.9,16.1l-11.7-14.9c-0.3-0.3-0.2-0.8,0.1-1.1c0.3-0.3,0.8-0.2,1.1,0.1l12.7,16.2
		v-15.9c0-0.4,0.3-0.8,0.8-0.8c0.4,0,0.8,0.3,0.8,0.8v15.9l12.7-16.2c0.3-0.3,0.7-0.4,1.1-0.1c0.3,0.3,0.4,0.7,0.1,1.1l-11.7,14.9
		l27.4-15.8c0.4-0.2,0.8-0.1,1,0.3C111.1,149.3,111,149.8,110.7,150L110.7,150z M45.5,148.5c-0.5,0-1-0.4-1-1c0-0.5,0.4-1,1-1
		s1,0.4,1,1C46.4,148,46,148.5,45.5,148.5z M59.5,143.9c0.2-0.2,0.5-0.1,0.7,0.1l0.8,1.1l1.5-1.1l-0.8-1.1c-0.2-0.2-0.1-0.5,0.1-0.7
		c0.2-0.2,0.5-0.1,0.7,0.1l2.2,3c0.2,0.2,0.1,0.5-0.1,0.7c-0.2,0.2-0.5,0.1-0.7-0.1l-0.8-1.1l-1.5,1.1l0.8,1.1
		c0.2,0.2,0.1,0.5-0.1,0.7c-0.2,0.2-0.5,0.1-0.7-0.1l-2.2-3C59.2,144.4,59.2,144.1,59.5,143.9L59.5,143.9z M77.4,143.8l1.5-3.4
		c0.1-0.2,0.3-0.4,0.6-0.4h0.1c0.3,0,0.4,0.1,0.5,0.4l1.5,3.4c0,0.1,0,0.1,0,0.2c0,0.3-0.2,0.5-0.4,0.5c-0.2,0-0.4-0.1-0.5-0.3
		l-0.3-0.7h-1.9l-0.3,0.7c-0.1,0.2-0.2,0.3-0.4,0.3c-0.2,0-0.4-0.2-0.4-0.4C77.3,143.9,77.3,143.8,77.4,143.8L77.4,143.8z
		 M93.9,144.8l2.3-2.9c0.2-0.2,0.5-0.3,0.7-0.1l0.1,0.1c0.2,0.1,0.2,0.3,0.2,0.5l-0.3,2.3l2.2-0.8c0.2-0.1,0.4-0.1,0.5,0.1l0.1,0.1
		c0.2,0.2,0.3,0.5,0.1,0.7l-2.2,2.9c-0.2,0.2-0.5,0.3-0.7,0.1c-0.2-0.2-0.3-0.5-0.1-0.7l1.4-1.8l-1.5,0.5c-0.2,0.1-0.3,0.1-0.5-0.1
		c-0.1-0.1-0.2-0.3-0.2-0.5l0.1-1.6l-1.4,1.8c-0.2,0.2-0.5,0.3-0.7,0.1C93.8,145.4,93.8,145.1,93.9,144.8L93.9,144.8z M128.7,137.6
		c-14.9,0-30.4-2.2-45.6-4.3c-27.7-3.8-54-7.5-75.5,1.2l70.6,40.7c0.4,0.2,0.8,0.3,1.3,0.3c0.4,0,0.9-0.1,1.3-0.3l67.9-39.2
		C142.2,137.1,135.5,137.6,128.7,137.6"/>
	<path fill="#FAC1CC" d="M104.3,44.1l1.5,2.7l1.5-2.7h2.8l-1.4-2.4l1.4-2.4h-2.8l-1.5-2.7l-1.5,2.7h-2.8l1.4,2.4l-1.4,2.4H104.3"/>
	<path fill="#FAC1CC" d="M79.4,141.2l-0.6,1.4H80L79.4,141.2"/>
	<path fill="#FAC1CC" d="M47,52.4v21.3c0,0.6-0.5,1-1,1h-3.9v5.1h75v-5.1h-3.9c-0.6,0-1-0.5-1-1V52.4h-13v21.3c0,0.6-0.5,1-1,1H86.9
		c-0.6,0-1-0.5-1-1V48.5c0-0.6,0.5-1,1-1H90v-2.3h-2.5c-0.3,0-0.6-0.1-0.7-0.3c-0.2-0.2-0.3-0.5-0.3-0.8l0-0.2l0-0.1
		c0-4-3.2-7.2-7.2-7.2c-4,0-7.2,3.2-7.2,7.2l0,0.1l0,0.2c0,0.3-0.1,0.6-0.3,0.8c-0.2,0.2-0.5,0.3-0.7,0.3h-2.5v2.3h3.1
		c0.6,0,1,0.5,1,1v25.2c0,0.6-0.5,1-1,1H61c-0.6,0-1-0.5-1-1V52.4L47,52.4"/>
	<path fill="#FAC1CC" d="M152,91.2h0.8V88h-2.6L152,91.2"/>
	<path fill="#FAC1CC" d="M151.8,83.2l-1.6,2.8h2.6v-2.8L151.8,83.2L151.8,83.2"/>
	<path fill="#FAC1CC" d="M146.8,112.3h6v-5.1h-6V112.3z"/>
	<path fill="#FAC1CC" d="M142.8,69.4h9.9v-7.6h-9.9V69.4z"/>
</g>
<g>
	<path fill="#FFFFFF" d="M218.4,82.5h-7.4l-14.9-25.2l-0.2,0v25.1h-7.4V45.6h7.4l14.9,25.1l0.2,0V45.6h7.4V82.5z"/>
	<path fill="#FFFFFF" d="M223.6,68.5c0-4.1,1.1-7.4,3.4-10c2.3-2.6,5.4-3.9,9.5-3.9c4,0,7.2,1.3,9.5,3.9c2.3,2.6,3.4,5.9,3.4,10V69
		c0,4.1-1.1,7.5-3.4,10.1c-2.3,2.6-5.4,3.9-9.5,3.9c-4,0-7.2-1.3-9.5-3.9c-2.3-2.6-3.4-5.9-3.4-10.1V68.5z M231,69
		c0,2.5,0.4,4.5,1.3,6c0.9,1.5,2.3,2.3,4.2,2.3c1.9,0,3.3-0.8,4.2-2.3c0.9-1.5,1.3-3.5,1.3-6v-0.5c0-2.4-0.4-4.4-1.3-5.9
		c-0.9-1.5-2.3-2.3-4.2-2.3c-1.9,0-3.3,0.8-4.2,2.3c-0.9,1.5-1.3,3.5-1.3,5.9V69z"/>
	<path fill="#FFFFFF" d="M252.9,69c0-4.3,0.9-7.8,2.8-10.4s4.5-4,7.9-4c1.4,0,2.6,0.3,3.7,0.9c1.1,0.6,2.1,1.4,2.9,2.5V43h7.4v39.5
		h-6.3l-0.6-3.3c-0.9,1.3-1.9,2.2-3,2.9c-1.2,0.7-2.5,1-4,1c-3.4,0-6-1.2-7.8-3.7c-1.9-2.5-2.8-5.7-2.8-9.8V69z M260.2,69.5
		c0,2.4,0.4,4.3,1.2,5.7c0.8,1.4,2.1,2.1,3.9,2.1c1.1,0,2-0.2,2.8-0.6c0.8-0.4,1.4-1.1,1.9-1.9V63c-0.5-0.9-1.2-1.5-1.9-2
		c-0.8-0.5-1.7-0.7-2.7-0.7c-1.8,0-3.1,0.8-4,2.4c-0.8,1.6-1.3,3.7-1.3,6.3V69.5z"/>
	<path fill="#FFFFFF" d="M295.4,83c-3.9,0-7.1-1.3-9.5-3.8c-2.4-2.5-3.5-5.7-3.5-9.6v-1c0-4.1,1.1-7.4,3.4-10c2.2-2.6,5.2-3.9,9-3.9
		c3.7,0,6.6,1.1,8.6,3.3c2,2.2,3.1,5.2,3.1,9v4H290l-0.1,0.2c0.1,1.8,0.7,3.3,1.8,4.4c1.1,1.2,2.5,1.7,4.4,1.7c1.6,0,3-0.2,4.1-0.5
		c1.1-0.3,2.3-0.8,3.5-1.6l2,4.6c-1.1,0.9-2.6,1.7-4.4,2.3S297.6,83,295.4,83z M294.7,60.3c-1.4,0-2.4,0.5-3.2,1.6
		c-0.8,1-1.3,2.4-1.5,4.1l0.1,0.1h9.1v-0.7c0-1.6-0.4-2.8-1.1-3.8C297.3,60.7,296.2,60.3,294.7,60.3z"/>
	<path fill="#FFFFFF" d="M325.5,74.9c0-0.8-0.4-1.5-1.2-2.1s-2.2-1.1-4.4-1.6c-3.2-0.7-5.7-1.6-7.3-2.9c-1.6-1.3-2.5-3-2.5-5.3
		c0-2.4,1-4.4,3-6c2-1.6,4.6-2.5,8-2.5c3.5,0,6.3,0.8,8.3,2.5c2.1,1.6,3.1,3.7,3,6.2l-0.1,0.2h-7.1c0-1.1-0.3-2-1-2.7s-1.7-1-3.1-1
		c-1.2,0-2.1,0.3-2.8,0.9c-0.7,0.6-1,1.3-1,2.2c0,0.8,0.4,1.5,1.1,2.1c0.7,0.5,2.2,1,4.4,1.4c3.4,0.7,5.9,1.7,7.5,3
		c1.6,1.3,2.5,3.1,2.5,5.4c0,2.5-1.1,4.5-3.2,6c-2.1,1.6-4.9,2.3-8.3,2.3c-3.6,0-6.5-0.9-8.6-2.8c-2.1-1.8-3.1-4-3-6.3l0.1-0.2h6.8
		c0.1,1.5,0.5,2.5,1.4,3.2c0.9,0.7,2.1,1,3.6,1c1.4,0,2.4-0.3,3.1-0.8C325.1,76.6,325.5,75.8,325.5,74.9z"/>
	<path fill="#FFFFFF" d="M348.9,77.3c1.3,0,2.4-0.4,3.2-1.1c0.8-0.8,1.2-1.8,1.2-3.1h6.7l0.1,0.2c0.1,2.8-1,5.1-3.1,6.9
		c-2.2,1.9-4.8,2.8-8,2.8c-4.1,0-7.2-1.3-9.4-3.9c-2.2-2.6-3.3-5.9-3.3-9.9v-0.8c0-4,1.1-7.3,3.3-9.9s5.3-3.9,9.4-3.9
		c3.4,0,6.1,1,8.2,2.9c2.1,1.9,3.1,4.5,3,7.6l-0.1,0.2h-6.7c0-1.4-0.4-2.6-1.2-3.5c-0.8-0.9-1.8-1.4-3.2-1.4c-2,0-3.3,0.8-4.1,2.3
		c-0.8,1.5-1.2,3.5-1.2,5.9v0.8c0,2.4,0.4,4.4,1.2,5.9C345.5,76.5,346.9,77.3,348.9,77.3z"/>
	<path fill="#FFFFFF" d="M371.4,58.5c0.9-1.2,1.9-2.2,3.2-2.9s2.6-1,4.1-1c2.9,0,5.1,0.9,6.7,2.8c1.6,1.9,2.4,4.8,2.4,8.8v16.2h-7.4
		V66.1c0-2.1-0.4-3.6-1.1-4.5c-0.8-0.9-1.9-1.3-3.4-1.3c-1,0-1.9,0.2-2.7,0.5c-0.8,0.4-1.4,0.9-1.9,1.5v20.1H364V43h7.4V58.5z"/>
	<path fill="#FFFFFF" d="M392.3,68.5c0-4.1,1.1-7.4,3.4-10c2.3-2.6,5.4-3.9,9.5-3.9c4,0,7.2,1.3,9.5,3.9c2.3,2.6,3.4,5.9,3.4,10V69
		c0,4.1-1.1,7.5-3.4,10.1c-2.3,2.6-5.4,3.9-9.5,3.9c-4,0-7.2-1.3-9.5-3.9c-2.3-2.6-3.4-5.9-3.4-10.1V68.5z M399.7,69
		c0,2.5,0.4,4.5,1.3,6c0.9,1.5,2.3,2.3,4.2,2.3c1.9,0,3.3-0.8,4.2-2.3c0.9-1.5,1.3-3.5,1.3-6v-0.5c0-2.4-0.4-4.4-1.3-5.9
		c-0.9-1.5-2.3-2.3-4.2-2.3c-1.9,0-3.3,0.8-4.2,2.3c-0.9,1.5-1.3,3.5-1.3,5.9V69z"/>
	<path fill="#FFFFFF" d="M421.5,68.5c0-4.1,1.1-7.4,3.4-10c2.3-2.6,5.4-3.9,9.5-3.9c4,0,7.2,1.3,9.5,3.9s3.4,5.9,3.4,10V69
		c0,4.1-1.1,7.5-3.4,10.1c-2.3,2.6-5.4,3.9-9.5,3.9c-4,0-7.2-1.3-9.5-3.9c-2.3-2.6-3.4-5.9-3.4-10.1V68.5z M428.9,69
		c0,2.5,0.4,4.5,1.3,6c0.9,1.5,2.3,2.3,4.2,2.3c1.9,0,3.3-0.8,4.2-2.3c0.9-1.5,1.3-3.5,1.3-6v-0.5c0-2.4-0.4-4.4-1.3-5.9
		c-0.9-1.5-2.3-2.3-4.2-2.3c-1.9,0-3.3,0.8-4.2,2.3c-0.9,1.5-1.3,3.5-1.3,5.9V69z"/>
	<path fill="#FFFFFF" d="M459.7,82.5h-7.4V43h7.4V82.5z"/>
	<path fill="#FFFFFF" d="M217,134.3h-3v-16.9h-20.9v16.9h-3V97.4h3v17.3H214V97.4h3V134.3z"/>
	<path fill="#FFFFFF" d="M243.2,134.3c-0.2-0.9-0.3-1.7-0.4-2.4c-0.1-0.7-0.1-1.4-0.1-2c-1,1.4-2.4,2.6-4,3.6
		c-1.7,0.9-3.6,1.4-5.7,1.4c-2.7,0-4.7-0.7-6.2-2.1c-1.5-1.4-2.2-3.3-2.2-5.7c0-2.5,1.1-4.6,3.3-6.1c2.2-1.5,5.1-2.3,8.8-2.3h6v-3.4
		c0-2-0.6-3.5-1.9-4.6c-1.3-1.1-3-1.7-5.3-1.7c-2.1,0-3.9,0.5-5.2,1.6c-1.4,1.1-2.1,2.4-2.1,3.9l-2.8,0l-0.1-0.2
		c-0.1-2,0.8-3.9,2.8-5.5s4.5-2.4,7.5-2.4c3,0,5.4,0.8,7.3,2.3s2.8,3.7,2.8,6.6v13.5c0,1,0.1,1.9,0.2,2.8c0.1,0.9,0.3,1.8,0.5,2.7
		H243.2z M233.2,132.1c2.2,0,4.1-0.5,5.8-1.5c1.7-1,2.9-2.3,3.6-3.9V121h-6.1c-2.7,0-4.9,0.6-6.6,1.8c-1.6,1.2-2.5,2.6-2.5,4.4
		c0,1.5,0.5,2.7,1.5,3.6C230,131.6,231.4,132.1,233.2,132.1z"/>
	<path fill="#FFFFFF" d="M256.3,106.9l0.3,4.5c0.9-1.6,2-2.8,3.5-3.7c1.5-0.9,3.2-1.3,5.2-1.3c2.1,0,3.8,0.5,5.2,1.5
		c1.4,1,2.4,2.6,3,4.6c0.8-1.9,2-3.4,3.5-4.5c1.5-1.1,3.4-1.6,5.6-1.6c2.9,0,5.2,1,6.8,2.9c1.6,1.9,2.4,4.9,2.4,9v16h-3v-16
		c0-3.4-0.6-5.8-1.8-7.2s-2.8-2.1-5-2.1c-2.3,0-4.2,0.7-5.4,2.2c-1.3,1.5-2.1,3.4-2.4,5.7c0,0.1,0,0.3,0,0.5c0,0.2,0,0.4,0,0.5v16.5
		h-3.1v-16c0-3.3-0.6-5.7-1.8-7.1c-1.2-1.4-2.9-2.1-5-2.1c-2.1,0-3.8,0.5-5.1,1.6c-1.3,1.1-2.1,2.6-2.6,4.4v19.3h-3.1v-27.4H256.3z"
		/>
	<path fill="#FFFFFF" d="M321.7,121.3c0,4.1-0.9,7.4-2.8,9.8c-1.9,2.4-4.4,3.7-7.7,3.7c-2,0-3.7-0.4-5.2-1.2c-1.5-0.8-2.6-2-3.5-3.5
		l-0.3,4.1h-2.6V94.8h3v16.4c0.9-1.5,2.1-2.7,3.5-3.6c1.4-0.8,3.1-1.3,5.1-1.3c3.3,0,5.9,1.3,7.7,3.9c1.9,2.6,2.8,6.1,2.8,10.5
		V121.3z M318.6,120.8c0-3.5-0.7-6.4-2-8.5c-1.3-2.2-3.3-3.3-6-3.3c-2.1,0-3.8,0.5-5.1,1.6c-1.3,1.1-2.2,2.4-2.9,4V127
		c0.7,1.6,1.7,2.9,3,3.8c1.3,0.9,3,1.4,5,1.4c2.6,0,4.6-1,6-2.9c1.3-2,2-4.6,2-7.9V120.8z"/>
	<path fill="#FFFFFF" d="M346.4,129.8c-0.9,1.6-2.1,2.8-3.5,3.7c-1.5,0.9-3.2,1.3-5.3,1.3c-2.9,0-5.1-1-6.8-2.9
		c-1.6-2-2.5-5-2.5-9.1v-15.9h3v15.9c0,3.3,0.6,5.7,1.7,7.2s2.8,2.2,4.8,2.2c2.3,0,4.1-0.5,5.5-1.5c1.4-1,2.3-2.5,2.9-4.3v-19.5h3
		v27.4h-2.7L346.4,129.8z"/>
	<path fill="#FFFFFF" d="M369.9,109.5l-2.3-0.2c-1.9,0-3.5,0.5-4.7,1.6s-2.1,2.5-2.6,4.4v18.9h-3v-27.4h2.7l0.4,4.6v0.3
		c0.8-1.7,1.9-3,3.2-3.9c1.3-0.9,2.9-1.4,4.8-1.4c0.4,0,0.8,0,1.1,0.1s0.7,0.1,0.9,0.2L369.9,109.5z"/>
	<path fill="#FFFFFF" d="M373.3,120.8c0-4.4,0.9-7.9,2.8-10.5c1.9-2.6,4.5-3.9,7.8-3.9c1.9,0,3.6,0.4,5,1.3c1.4,0.9,2.6,2.1,3.5,3.6
		l0.4-4.4h2.6v27c0,3.5-1,6.3-2.9,8.3s-4.7,3.1-8.1,3.1c-1.3,0-2.7-0.2-4.2-0.5c-1.5-0.3-2.8-0.8-3.9-1.3l0.8-2.6
		c1.1,0.5,2.2,0.9,3.4,1.2c1.2,0.3,2.5,0.4,3.8,0.4c2.7,0,4.7-0.8,6-2.3s2-3.7,2-6.4v-3.4c-0.9,1.4-2.1,2.4-3.5,3.2
		c-1.4,0.8-3.1,1.1-5,1.1c-3.3,0-5.9-1.2-7.7-3.7c-1.9-2.4-2.8-5.7-2.8-9.8V120.8z M376.3,121.3c0,3.3,0.7,5.9,2,7.9
		c1.3,2,3.4,3,6,3c2,0,3.6-0.5,4.9-1.4s2.3-2.1,3-3.7v-12.7c-0.7-1.6-1.6-2.9-2.9-3.9s-2.9-1.5-5-1.5c-2.7,0-4.7,1.1-6,3.3
		c-1.4,2.2-2,5-2,8.5V121.3z"/>
</g>
</svg>
